<svg width="41" height="41" viewBox="0 0 41 41" fill="none" xmlns="http://www.w3.org/2000/svg">
<path fill-rule="evenodd" clip-rule="evenodd" d="M32.2659 0.60321C32.6595 0.60321 32.9553 0.800248 33.0536 1.19383L33.6442 2.8679V3.35975L33.0536 5.82099C32.9548 6.21506 32.6595 6.4121 32.2659 6.4121V17.5365H35.5153C35.9084 17.5365 36.3025 17.9306 36.3025 18.3242V21.7701C36.3025 22.0654 36.1054 22.3607 35.9089 22.4595C35.4165 22.7548 35.1212 23.2467 35.1212 23.8373C35.1212 24.3301 35.4165 24.822 35.9084 25.1173C36.1059 25.216 36.3025 25.5114 36.3025 25.8067V35.1598C36.3025 37.818 34.1365 39.984 31.4783 39.984C28.82 39.984 26.6541 37.818 26.6541 35.1593V25.8077C26.6541 25.5123 26.8511 25.217 27.0476 25.1183C27.54 24.9217 27.8353 24.4294 27.8353 23.8388C27.8353 23.3464 27.54 22.8541 27.0481 22.5588C26.8506 22.46 26.6541 22.1647 26.6541 21.8694V18.4235C26.6541 18.0299 27.0476 17.6358 27.4417 17.6358H30.6911V6.51037L30.5755 6.50445C30.2397 6.46889 29.9918 6.27432 29.903 5.91975L29.3123 3.45852C29.2136 3.26099 29.3123 3.06445 29.3123 2.96617L29.903 1.09556C30.1 0.800247 30.3953 0.60321 30.6906 0.60321H32.2659ZM19.0733 0.996791C19.2704 0.800248 19.6639 0.800248 19.861 0.996791C22.5192 2.76963 24.0941 5.72272 24.0941 8.87333C24.0941 12.5158 20.5499 15.4694 18.8763 16.5523L19.9592 34.3726C19.9592 37.4244 17.498 39.8862 14.5444 39.8862C11.5909 39.8862 9.12962 37.4244 9.12962 34.4709L10.4091 16.5528C8.83431 15.4694 5.19135 12.6141 5.19135 8.87284C5.19135 5.72222 6.76665 2.76914 9.42493 0.996297C9.62147 0.898025 9.91727 0.898025 10.2126 0.996297C10.4096 1.09506 10.6062 1.39037 10.6062 1.68568V7.10049L12.5755 10.0541H16.7104L18.6792 7.10099V1.68568C18.6792 1.39037 18.8763 1.09506 19.0733 0.996297V0.996791ZM34.6289 19.1123H28.2284V21.3765C29.0165 21.9677 29.4101 22.8536 29.4101 23.8383C29.4101 24.8225 28.9183 25.7089 28.2289 26.2995V35.2585C28.2289 37.0309 29.7054 38.5079 31.4778 38.5079C33.2501 38.5079 34.7271 37.0309 34.7271 35.2585V26.2995C33.939 25.7089 33.5454 24.823 33.5454 23.8383C33.5454 22.8536 34.0378 21.9677 34.7267 21.3765H34.6279V19.1123H34.6289ZM9.03085 3.26148C7.55431 4.73803 6.76665 6.70741 6.76665 8.77506C6.76665 12.1222 10.5079 14.78 11.6891 15.4694C11.9844 15.5681 12.0832 15.8635 12.0832 16.1588L10.8032 34.4709C10.8032 36.5385 12.4773 38.3109 14.6427 38.3109C16.7104 38.3109 18.4827 36.6368 18.4827 34.4709L17.2027 16.1588C17.2027 15.8635 17.3992 15.6664 17.5963 15.4694C18.778 14.7805 22.5192 12.1222 22.5192 8.87333C22.5192 6.80568 21.7316 4.83679 20.2546 3.35975V7.29803C20.2546 7.49506 20.1558 7.59333 20.2546 7.69161L17.8916 11.2363C17.695 11.5316 17.498 11.6299 17.2027 11.6299H12.1815C11.8862 11.6299 11.5909 11.4328 11.4921 11.1375L9.12962 7.59333C9.03085 7.49457 9.03085 7.3963 9.03085 7.19975V3.26148ZM31.4783 26.496C31.8718 26.496 32.2659 26.8901 32.2659 27.2842V35.062C32.2659 35.4556 31.8723 35.8491 31.4783 35.8491C31.0847 35.8491 30.6906 35.4556 30.6906 35.0615V27.2837C30.6906 26.8901 31.0842 26.496 31.4783 26.496ZM14.6427 33.1909C15.3321 33.1909 15.9227 33.782 15.9227 34.4709L15.9158 34.5993C15.8486 35.2314 15.2886 35.7509 14.6427 35.7509C13.9538 35.7509 13.3632 35.1602 13.3632 34.4709C13.3632 33.782 13.9538 33.1909 14.6427 33.1909ZM31.7736 2.17852H31.2812L30.8876 3.26148L31.2812 4.83679H31.6753L32.1676 3.26148L31.7736 2.17852Z" fill="#A8ACB1"/>
</svg>
