<svg width="18" height="16" viewBox="0 0 18 16" fill="none" xmlns="http://www.w3.org/2000/svg">
<path fill-rule="evenodd" clip-rule="evenodd" d="M12.7333 9.6C11.6667 10.6667 11.6667 11.7333 10.6 11.7333C9.53333 11.7333 8.46667 10.6667 7.4 9.6C6.33333 8.53333 5.26667 7.46667 5.26667 6.4C5.26667 5.33333 6.33333 5.33333 7.4 4.26667C8.46667 3.2 5.26667 0 4.2 0C3.13333 0 1 3.2 1 3.2C1 5.33333 3.192 9.65867 5.26667 11.7333C7.34133 13.808 11.6667 16 13.8 16C13.8 16 17 13.8667 17 12.8C17 11.7333 13.8 8.53333 12.7333 9.6Z" fill="black"/>
</svg>
