<svg width="41" height="41" viewBox="0 0 41 41" fill="none" xmlns="http://www.w3.org/2000/svg">
<path fill-rule="evenodd" clip-rule="evenodd" d="M19.666 8.05587V13.7709L20.299 14.4259C20.4407 14.5753 20.5177 14.7746 20.5132 14.9805C20.5088 15.1864 20.4232 15.3822 20.2752 15.5254C20.1272 15.6686 19.9286 15.7475 19.7227 15.7451C19.5167 15.7426 19.3201 15.659 19.1755 15.5124L18.3225 14.6309C18.1814 14.4851 18.1025 14.2902 18.1025 14.0874V8.83737H16.959V11.4124C16.959 12.1064 16.121 12.4559 15.6275 11.9674L12.117 8.49037L2.503 17.9999H3.9885C4.42 17.9999 4.77 18.3499 4.77 18.7814V24.7039H9.975V21.4644C9.975 21.0329 10.325 20.6829 10.7565 20.6829H13.463C13.5656 20.6829 13.6673 20.7031 13.7621 20.7424C13.8569 20.7816 13.943 20.8392 14.0156 20.9118C14.0882 20.9843 14.1457 21.0705 14.185 21.1653C14.2243 21.2601 14.2445 21.3617 14.2445 21.4644C14.2445 21.567 14.2243 21.6686 14.185 21.7634C14.1457 21.8583 14.0882 21.9444 14.0156 22.017C13.943 22.0895 13.8569 22.1471 13.7621 22.1864C13.6673 22.2257 13.5656 22.2459 13.463 22.2459H11.538V25.4859C11.538 25.9169 11.188 26.2669 10.7565 26.2669H3.9885C3.557 26.2669 3.207 25.9169 3.207 25.4854V19.5629H1.282C0.85 19.5629 0.5 19.2129 0.5 18.7814V18.1084C0.5 17.8999 0.5835 17.6994 0.732 17.5529L11.5675 6.83537C11.7138 6.6904 11.9115 6.60907 12.1175 6.60907C12.3235 6.60907 12.5212 6.6904 12.6675 6.83537L15.396 9.53787V8.05587C15.396 7.62437 15.746 7.27437 16.1775 7.27437H18.8845C19.316 7.27437 19.666 7.62437 19.666 8.05587ZM35.767 19.6544V12.9509C35.767 12.5189 35.417 12.1694 34.985 12.1694H31.8325C31.4005 12.1694 31.051 12.5194 31.051 12.9509V14.9824L27.649 11.6144C27.5027 11.4694 27.305 11.3881 27.099 11.3881C26.893 11.3881 26.6953 11.4694 26.549 11.6144L13.945 24.1114C13.8718 24.1841 13.8136 24.2705 13.774 24.3658C13.7344 24.461 13.714 24.5632 13.714 24.6664V25.4474C13.714 25.8789 14.064 26.2289 14.4955 26.2289H16.8665V33.2574C16.8665 33.6889 17.2165 34.0389 17.6485 34.0389H25.5345C25.966 34.0389 26.316 33.6889 26.316 33.2574V29.3524H27.906V33.2574C27.906 33.6889 28.256 34.0389 28.6875 34.0389H36.565C36.9965 34.0389 37.3465 33.6889 37.3465 33.2574V26.2284H39.718C40.1495 26.2284 40.4995 25.8784 40.4995 25.4469V24.6659C40.4995 24.4574 40.416 24.2569 40.268 24.1104L35.766 19.6539L35.767 19.6544ZM36.5655 24.6659C36.134 24.6659 35.784 25.0159 35.784 25.4474V32.4759H29.469V28.5709C29.469 28.1399 29.119 27.7899 28.6875 27.7899H25.5345C25.103 27.7899 24.753 28.1399 24.753 28.5714V32.4759H18.43V25.4469C18.43 25.0154 18.08 24.6654 17.6485 24.6654H15.606L27.1 13.2704L31.283 17.4109C31.7765 17.8999 32.6145 17.5504 32.6145 16.8559V13.7324H34.2045V19.9794C34.2045 20.1879 34.2875 20.3879 34.436 20.5344L38.6075 24.6644H36.566L36.5655 24.6659ZM15.277 24.6659V24.9919L15.0455 25.2214L14.4955 24.6664L15.277 24.6659ZM39.1685 25.2219L39.7185 24.6664H38.937V24.9924L39.1685 25.2219Z" fill="#A8ACB1"/>
</svg>
