<svg width="17" height="17" viewBox="0 0 17 17" fill="none" xmlns="http://www.w3.org/2000/svg">
<path fill-rule="evenodd" clip-rule="evenodd" d="M8.6875 16.3594C13.1055 16.3594 16.6875 12.7774 16.6875 8.35938C16.6875 3.94138 13.1055 0.359375 8.6875 0.359375C4.2695 0.359375 0.6875 3.94138 0.6875 8.35938C0.6875 12.7774 4.2695 16.3594 8.6875 16.3594Z" fill="#65666A"/>
<path d="M7.68753 3.74272C7.69195 3.37141 7.84368 3.01707 8.10936 2.75765C8.37504 2.49822 8.73289 2.35496 9.10419 2.35938C9.4755 2.3638 9.82984 2.51554 10.0893 2.78122C10.3487 3.04689 10.4919 3.40475 10.4875 3.77605C10.4853 3.9599 10.447 4.14152 10.3746 4.31054C10.3022 4.47956 10.1972 4.63266 10.0657 4.76112C9.80001 5.02054 9.44216 5.1638 9.07086 5.15938C8.69956 5.15496 8.34522 5.00322 8.08579 4.73755C7.82637 4.47187 7.68311 4.11402 7.68753 3.74272ZM6.91086 7.00472C7.03553 7.05538 7.16686 7.08738 7.30086 7.10138C7.60753 7.13338 7.69153 7.26272 7.69153 7.61738V7.77872C7.55153 8.61738 7.44019 9.48872 7.30086 10.3274C7.21753 10.8107 7.16153 11.2947 7.10553 11.8107C7.08112 12.1312 7.16368 12.4507 7.3403 12.7193C7.51691 12.9878 7.77759 13.1902 8.08153 13.2947C8.36819 13.332 8.65686 13.354 8.94619 13.3594C9.24891 13.344 9.54485 13.2641 9.81414 13.125C10.0834 12.9859 10.3198 12.7907 10.5075 12.5527C10.5909 12.4621 10.6489 12.3507 10.6749 12.23C10.7309 12.0367 10.5915 11.8754 10.3962 11.972L10.0615 12.1654C9.92419 12.242 9.77219 12.2854 9.61486 12.2947C9.44819 12.3274 9.30819 12.198 9.25286 12.0047C9.21574 11.8462 9.20627 11.6825 9.22486 11.5207C9.25286 11.198 9.30886 10.8754 9.36486 10.5527C9.50419 9.58538 9.67153 8.61738 9.81086 7.64938C9.85419 7.38272 9.88219 7.11338 9.89419 6.84272C9.89419 6.52072 9.72753 6.35938 9.44819 6.35938H7.21753C7.12332 6.35551 7.02908 6.36631 6.93819 6.39138C6.86647 6.39684 6.79982 6.43049 6.75285 6.48496C6.70587 6.53944 6.68238 6.6103 6.68753 6.68205C6.68456 6.75281 6.70476 6.82261 6.74507 6.88085C6.78537 6.93908 6.84358 6.98257 6.91086 7.00472Z" fill="white"/>
</svg>
