<svg width="18" height="16" viewBox="0 0 18 16" fill="none" xmlns="http://www.w3.org/2000/svg">
<path fill-rule="evenodd" clip-rule="evenodd" d="M17 8C17 12.418 13.418 16 9 16C4.582 16 1 12.418 1 8C1 3.582 4.582 0 9 0C13.418 0 17 3.582 17 8ZM8.52667 9.06H9.53333C9.69533 9.06 9.78267 8.94733 9.78267 8.798V8.38733C9.78267 8.07933 10.1053 7.82333 10.4847 7.524C11.0227 7.098 11.674 6.58333 11.674 5.69933C11.674 4.48 10.5667 3.60867 9.26 3.60867C7.66667 3.60867 6.82067 4.704 6.82067 4.704C6.734 4.79067 6.72067 4.94067 6.82067 5.02733L7.40533 5.6C7.49267 5.67467 7.58 5.67467 7.67933 5.61267C7.73533 5.576 7.79533 5.52333 7.864 5.464C8.10067 5.25733 8.43467 4.96533 9.02333 4.96533C9.64533 4.96533 10.0187 5.35133 10.0187 5.79867C10.0187 6.20133 9.65 6.51333 9.25267 6.84933C8.79 7.24067 8.28933 7.66467 8.28933 8.30067V8.82333C8.28933 8.96 8.40133 9.05933 8.52533 9.05933L8.52667 9.06ZM9.024 12.5687C8.464 12.5687 8.004 12.1087 8.004 11.5487C8.004 10.9887 8.464 10.5153 9.024 10.5153C9.584 10.5153 10.0573 10.9887 10.0573 11.5487C10.0573 12.1087 9.584 12.5687 9.024 12.5687Z" fill="black"/>
</svg>
