<svg width="41" height="41" viewBox="0 0 41 41" fill="none" xmlns="http://www.w3.org/2000/svg">
<mask id="mask0_0_245" style="mask-type:alpha" maskUnits="userSpaceOnUse" x="0" y="0" width="41" height="35">
<path fill-rule="evenodd" clip-rule="evenodd" d="M0.5 34.0794V0.109375H40.5V34.0794H0.5Z" fill="white"/>
</mask>
<g mask="url(#mask0_0_245)">
<path fill-rule="evenodd" clip-rule="evenodd" d="M33.895 27.5994C38.03 24.9504 40.5 20.4354 40.5 15.5234V4.21837C40.5 3.97537 40.378 3.74837 40.175 3.61537C40.0751 3.54886 39.9602 3.50851 39.8407 3.49803C39.7211 3.48754 39.6009 3.50726 39.491 3.55537C36.142 4.99337 32.314 4.26137 29.737 1.68437L28.365 0.312368C28.094 0.0403679 27.614 0.0403679 27.343 0.312368L25.971 1.68437C23.394 4.26137 19.565 4.99437 16.217 3.55537C16.1071 3.50803 15.9872 3.48871 15.8679 3.49915C15.7487 3.50959 15.634 3.54945 15.534 3.61516C15.434 3.68088 15.3518 3.77039 15.2949 3.87567C15.238 3.98095 15.2082 4.0987 15.208 4.21837V7.05237C15.208 7.24412 15.2842 7.42802 15.4198 7.56361C15.5554 7.69919 15.7392 7.77537 15.931 7.77537C16.1228 7.77537 16.3066 7.69919 16.4422 7.56361C16.5778 7.42802 16.654 7.24412 16.654 7.05237V5.25637C20.291 6.40037 24.252 5.45037 26.993 2.70637L27.854 1.84537L28.715 2.70637C31.457 5.44937 35.417 6.39937 39.054 5.25637V10.0274L31.76 12.3944C31.443 12.4964 31.27 12.8364 31.373 13.1544C31.4223 13.3061 31.5299 13.432 31.6721 13.5043C31.8142 13.5767 31.9793 13.5897 32.131 13.5404L39.054 11.2944V14.6874L27.668 18.3814C27.352 18.4844 27.178 18.8244 27.281 19.1414C27.3306 19.2932 27.4383 19.4191 27.5805 19.4917C27.7228 19.5642 27.888 19.5774 28.04 19.5284L39.026 15.9634C38.883 20.2074 36.709 24.0794 33.114 26.3814L27.844 29.7584L26.146 28.7294C26.0648 28.6802 25.9748 28.6475 25.881 28.6331C25.7872 28.6187 25.6915 28.623 25.5993 28.6456C25.5072 28.6682 25.4204 28.7087 25.3439 28.7649C25.2674 28.821 25.2027 28.8917 25.1535 28.9729C25.1043 29.054 25.0716 29.1441 25.0572 29.2379C25.0428 29.3317 25.0471 29.4274 25.0697 29.5195C25.0923 29.6117 25.1329 29.6985 25.189 29.775C25.2452 29.8515 25.3158 29.9162 25.397 29.9654L27.48 31.2294C27.5957 31.2989 27.7285 31.3349 27.8634 31.3331C27.9984 31.3313 28.1302 31.2919 28.244 31.2194L33.895 27.5994ZM13.022 34.1534C19.927 34.1534 25.545 28.5354 25.545 21.6304C25.545 14.7254 19.927 9.10837 13.022 9.10837C6.117 9.10837 0.5 14.7254 0.5 21.6304C0.5 28.5354 6.117 34.1534 13.022 34.1534ZM24.099 21.5564C24.099 15.4494 19.13 10.4804 13.022 10.4804C6.915 10.4804 1.946 15.4494 1.946 21.5564C1.946 27.6644 6.915 32.6334 13.022 32.6334C19.13 32.6334 24.099 27.6644 24.099 21.5564ZM26.587 15.3084C26.649 15.3084 26.712 15.2994 26.773 15.2794L29.574 14.3714C29.7235 14.32 29.8469 14.2119 29.9175 14.0705C29.9881 13.929 30.0004 13.7655 29.9516 13.6151C29.9028 13.4647 29.7969 13.3395 29.6567 13.2664C29.5165 13.1933 29.3532 13.1782 29.202 13.2244L26.401 14.1324C26.2648 14.177 26.149 14.2687 26.0743 14.3909C25.9996 14.5132 25.9708 14.658 25.9932 14.7996C26.0156 14.9411 26.0877 15.07 26.1965 15.1633C26.3053 15.2565 26.4437 15.3079 26.587 15.3084ZM17.4625 18.3229C17.5976 18.1899 17.7781 18.1129 17.9676 18.1076C18.1571 18.1023 18.3416 18.1689 18.484 18.2941C18.6263 18.4193 18.716 18.5938 18.7349 18.7824C18.7539 18.9711 18.7007 19.1599 18.586 19.3109L18.5125 19.3939L11.3155 26.4474C11.1881 26.5723 11.0204 26.6477 10.8424 26.66C10.6645 26.6724 10.4879 26.6209 10.3445 26.5149L10.261 26.4429L6.721 22.9164C6.58738 22.7827 6.50915 22.6035 6.50197 22.4146C6.49479 22.2258 6.55918 22.0411 6.68227 21.8977C6.80536 21.7543 6.97806 21.6626 7.16583 21.641C7.3536 21.6195 7.54259 21.6696 7.695 21.7814L7.7795 21.8539L10.794 24.8564L17.4625 18.3229Z" fill="#A8ACB1"/>
</g>
</svg>
