<svg width="30" height="30" viewBox="0 0 30 30" fill="none" xmlns="http://www.w3.org/2000/svg">
<path fill-rule="evenodd" clip-rule="evenodd" d="M0 15C0 6.75 6.75 0 15 0C23.25 0 30 6.75 30 15C30 23.25 23.25 30 15 30C6.75 30 0 23.25 0 15ZM22.05 19.875C22.275 19.425 22.425 18.9 22.425 18.075C22.4875 17.4562 22.4975 17.1437 22.5413 15.875L22.575 14.925C22.575 13.6887 22.5475 13.1237 22.525 12.6825C22.5125 12.4012 22.5 12.1712 22.5 11.85C22.425 11.1 22.275 10.5 22.125 10.05C21.9236 9.54153 21.6169 9.08145 21.225 8.7C20.8436 8.3081 20.3835 8.00137 19.875 7.8C19.425 7.575 18.9 7.425 18.075 7.425C17.325 7.35 17.025 7.35 15 7.35C13.7638 7.35 13.1988 7.3775 12.7575 7.4C12.4763 7.4125 12.2463 7.425 11.925 7.425C11.175 7.5 10.575 7.65 10.125 7.8C9.61653 8.00137 9.15645 8.3081 8.775 8.7C8.3831 9.08145 8.07637 9.54153 7.875 10.05C7.65 10.5 7.5 11.025 7.5 11.85C7.425 12.6 7.425 12.9 7.425 14.925C7.425 16.1612 7.4525 16.7262 7.475 17.1675C7.4875 17.4487 7.5 17.6787 7.5 18C7.575 18.75 7.725 19.35 7.875 19.8C8.1 20.325 8.325 20.7 8.775 21.15C9.225 21.6 9.6 21.825 10.125 22.05C10.575 22.275 11.1 22.425 11.925 22.425C12.675 22.5 12.975 22.5 15 22.5H18C18.75 22.425 19.35 22.275 19.8 22.125C20.3085 21.9236 20.7686 21.6169 21.15 21.225C21.6 20.775 21.825 20.4 22.05 19.875ZM20.85 10.575C20.7 10.2 20.55 9.975 20.325 9.75C20.1 9.525 19.8 9.3 19.5 9.225C19.4475 9.2125 19.3938 9.19625 19.335 9.18C18.9267 9.05576 18.5017 8.99505 18.075 9C17.75 9 17.5175 8.9875 17.2375 8.975C16.805 8.9525 16.2563 8.925 15.075 8.925C13.125 8.925 12.825 8.925 12.075 9C11.4563 9 11.0925 9.1025 10.815 9.18C10.7563 9.19625 10.7025 9.2125 10.65 9.225C10.275 9.375 10.05 9.525 9.825 9.75C9.6 9.975 9.375 10.275 9.3 10.575C9.2875 10.6275 9.27125 10.6812 9.255 10.74C9.1775 11.0175 9.075 11.3813 9.075 12C9.075 12.325 9.0625 12.5575 9.05 12.8375C9.0275 13.27 9 13.8188 9 15C9 16.95 9 17.25 9.075 18C9.075 18.6187 9.1775 18.9825 9.255 19.26C9.27125 19.3188 9.2875 19.3725 9.3 19.425C9.45 19.8 9.6 20.025 9.825 20.25C10.05 20.475 10.35 20.7 10.65 20.775C10.7025 20.7875 10.7563 20.8038 10.815 20.82C11.0925 20.8975 11.4563 21 12.075 21C12.4 21 12.6325 21.0125 12.9125 21.025C13.345 21.0475 13.8938 21.075 15.075 21.075C17.025 21.075 17.325 21.075 18.075 21C18.5017 21.0049 18.9267 20.9442 19.335 20.82L19.5 20.775C19.875 20.625 20.1 20.475 20.325 20.25C20.55 20.025 20.775 19.725 20.85 19.425C20.8625 19.3725 20.8787 19.3188 20.895 19.26C21.0192 18.8517 21.0799 18.4267 21.075 18C21.075 17.675 21.0875 17.4425 21.1 17.1625C21.1225 16.73 21.15 16.1812 21.15 15C21.15 13.05 21.15 12.75 21.075 12C21.075 11.3813 20.9725 11.0175 20.895 10.74C20.8792 10.6852 20.8642 10.6302 20.85 10.575ZM15 18.825C12.9 18.825 11.175 17.1 11.175 15C11.175 12.9 12.9 11.175 15 11.175C17.1 11.175 18.825 12.9 18.825 15C18.825 17.1 17.1 18.825 15 18.825ZM18.975 11.925C18.45 11.925 18.075 11.55 18.075 11.025C18.075 10.5 18.45 10.125 18.975 10.125C19.5 10.125 19.875 10.5 19.875 11.025C19.875 11.475 19.5 11.925 18.975 11.925ZM17.475 15C17.475 15.6564 17.2142 16.2859 16.7501 16.7501C16.2859 17.2142 15.6564 17.475 15 17.475C14.3436 17.475 13.7141 17.2142 13.2499 16.7501C12.7858 16.2859 12.525 15.6564 12.525 15C12.525 14.3436 12.7858 13.7141 13.2499 13.2499C13.7141 12.7858 14.3436 12.525 15 12.525C15.6564 12.525 16.2859 12.7858 16.7501 13.2499C17.2142 13.7141 17.475 14.3436 17.475 15Z" fill="black"/>
</svg>
