<svg width="30" height="30" viewBox="0 0 30 30" fill="none" xmlns="http://www.w3.org/2000/svg">
<path fill-rule="evenodd" clip-rule="evenodd" d="M15 0C6.75 0 0 6.75 0 15C0 23.25 6.75 30 15 30C23.25 30 30 23.25 30 15C30 6.75 23.25 0 15 0ZM21.75 11.925V12.3C21.75 16.35 18.675 21.075 12.975 21.075C11.25 21.075 9.6 20.55 8.25 19.725C8.475 19.725 8.7 19.8 9 19.8C10.425 19.8 11.775 19.275 12.825 18.45C11.475 18.45 10.35 17.55 9.975 16.35C10.2 16.35 10.35 16.425 10.575 16.425C10.875 16.425 11.1 16.35 11.4 16.35C9.975 16.05 8.925 14.85 8.925 13.35V13.275C9.375 13.5 9.825 13.65 10.35 13.65C9.525 13.125 9 12.15 9 11.1C9 10.5 9.15 9.975 9.45 9.525C10.95 11.4 13.2 12.6 15.825 12.75C15.75 12.525 15.75 12.3 15.75 12.075C15.75 10.35 17.1 9 18.825 9C19.725 9 20.475 9.375 21.075 9.975C21.75 9.825 22.425 9.6 23.025 9.225C22.8 9.975 22.275 10.575 21.675 10.95C22.275 10.875 22.875 10.725 23.475 10.5C22.8 10.95 22.35 11.475 21.75 11.925Z" fill="black"/>
</svg>
