<svg width="30" height="30" viewBox="0 0 30 30" fill="none" xmlns="http://www.w3.org/2000/svg">
<path fill-rule="evenodd" clip-rule="evenodd" d="M0 15C0 6.75 6.75 0 15 0C23.25 0 30 6.75 30 15C30 23.25 23.25 30 15 30C6.75 30 0 23.25 0 15ZM24.15 18.675C24.225 17.7 24.3 16.725 24.3 15.675H24.375V14.25C24.375 13.275 24.375 12.225 24.225 11.25C24.225 11.25 24 9.975 23.475 9.375C22.8363 8.73625 22.1975 8.64125 21.79 8.58125C21.7264 8.57235 21.6631 8.56193 21.6 8.55C18.975 8.325 15.075 8.325 15.075 8.325C15.075 8.325 11.175 8.325 8.55 8.55C8.4925 8.5625 8.425 8.57125 8.34875 8.5825C7.92625 8.6425 7.24625 8.74 6.675 9.375C6.075 9.975 5.925 11.25 5.925 11.25C5.85 12.225 5.775 13.2 5.775 14.25V15.675C5.775 16.65 5.775 17.7 5.925 18.675C5.925 18.675 6.15 19.95 6.675 20.55C7.2525 21.1912 7.995 21.2838 8.47875 21.345C8.56125 21.355 8.635 21.3638 8.7 21.375C10.125 21.525 15 21.6 15 21.6C15 21.6 18.9 21.6 21.525 21.375C21.5825 21.3625 21.65 21.3537 21.7262 21.3425C22.1488 21.2825 22.8287 21.185 23.4 20.55C24 19.95 24.15 18.675 24.15 18.675ZM18.75 14.925L12.75 18.15V11.775L18.75 14.925Z" fill="black"/>
</svg>
