<svg width="137" height="40" viewBox="0 0 137 40" fill="none" xmlns="http://www.w3.org/2000/svg">
<mask id="mask0_0_33" style="mask-type:luminance" maskUnits="userSpaceOnUse" x="0" y="0" width="137" height="40">
<path d="M0 0H137V40H0V0Z" fill="white"/>
</mask>
<g mask="url(#mask0_0_33)">
<path d="M132 0H5C3.67392 0 2.40215 0.526784 1.46447 1.46447C0.526784 2.40215 0 3.67392 0 5L0 35C0 36.3261 0.526784 37.5979 1.46447 38.5355C2.40215 39.4732 3.67392 40 5 40H132C133.326 40 134.598 39.4732 135.536 38.5355C136.473 37.5979 137 36.3261 137 35V5C137 3.67392 136.473 2.40215 135.536 1.46447C134.598 0.526784 133.326 0 132 0Z" fill="black"/>
<path d="M132 0.8C133.114 0.8 134.182 1.2425 134.97 2.03015C135.758 2.8178 136.2 3.88609 136.2 5V35C136.2 35.5516 136.092 36.0979 135.881 36.6076C135.67 37.1173 135.36 37.5804 134.97 37.9704C134.58 38.3605 134.117 38.6699 133.608 38.8808C133.098 39.0918 132.552 39.2003 132 39.2H5C3.88609 39.2 2.8178 38.7575 2.03015 37.9698C1.2425 37.1822 0.8 36.1139 0.8 35V5C0.8 3.88609 1.2425 2.8178 2.03015 2.03015C2.8178 1.2425 3.88609 0.8 5 0.8H132ZM132 0H5C3.67392 0 2.40215 0.526784 1.46447 1.46447C0.526784 2.40215 0 3.67392 0 5L0 35C0 36.3261 0.526784 37.5979 1.46447 38.5355C2.40215 39.4732 3.67392 40 5 40H132C133.326 39.9995 134.597 39.4725 135.535 38.535C136.473 37.5974 136.999 36.3259 137 35V5C136.999 3.67408 136.473 2.40262 135.535 1.46505C134.597 0.527485 133.326 0.00053005 132 0Z" fill="#A6A6A6"/>
<path fill-rule="evenodd" clip-rule="evenodd" d="M40.57 30.25C37.1878 32.5403 33.1947 33.7599 29.11 33.75C23.9416 33.773 18.9502 31.8691 15.11 28.41C14.82 28.15 15.11 27.79 15.43 27.99C19.6919 30.4309 24.5186 31.7134 29.43 31.71C33.0997 31.6928 36.7297 30.9485 40.11 29.52C40.64 29.3 41.08 29.87 40.57 30.25Z" fill="white"/>
<path fill-rule="evenodd" clip-rule="evenodd" d="M41.85 28.78C41.46 28.27 39.24 28.53 38.24 28.65C37.94 28.65 37.89 28.43 38.16 28.24C39.93 26.99 42.84 27.35 43.16 27.77C43.48 28.19 43.07 31.1 41.41 32.49C41.15 32.7 40.91 32.59 41.02 32.31C41.41 31.37 42.25 29.28 41.85 28.78ZM38.31 19.44V18.23C38.31 18.1893 38.318 18.149 38.3336 18.1114C38.3492 18.0738 38.372 18.0396 38.4008 18.0108C38.4296 17.9821 38.4637 17.9592 38.5014 17.9436C38.539 17.9281 38.5793 17.92 38.62 17.92H44C44.0822 17.92 44.1611 17.9527 44.2192 18.0108C44.2773 18.069 44.31 18.1478 44.31 18.23V19.23C44.2406 19.5143 44.0994 19.776 43.9 19.99L41.09 23.99C42.1638 23.9283 43.2345 24.1562 44.19 24.65C44.2743 24.6963 44.3447 24.7643 44.3939 24.847C44.4431 24.9296 44.4694 25.0239 44.47 25.12V26.42C44.4703 26.4678 44.4587 26.5149 44.4365 26.5571C44.4142 26.5993 44.3818 26.6354 44.3422 26.6621C44.3027 26.6888 44.2571 26.7053 44.2096 26.7102C44.1621 26.7151 44.1142 26.7082 44.07 26.69C43.1856 26.234 42.205 25.996 41.21 25.996C40.215 25.996 39.2344 26.234 38.35 26.69C38.16 26.79 37.96 26.59 37.96 26.41V25.24C37.9418 24.9496 38.0115 24.6604 38.16 24.41L41.42 19.74H38.62C38.5797 19.7415 38.5396 19.7349 38.502 19.7204C38.4643 19.706 38.43 19.6841 38.4011 19.6561C38.3721 19.6281 38.3491 19.5945 38.3335 19.5574C38.3178 19.5202 38.3098 19.4803 38.31 19.44ZM18.53 27H16.88C16.8051 26.9959 16.734 26.9656 16.6792 26.9145C16.6244 26.8633 16.5893 26.7945 16.58 26.72V18.25C16.58 18.2098 16.588 18.1699 16.6037 18.1329C16.6194 18.0958 16.6424 18.0623 16.6714 18.0343C16.7003 18.0063 16.7346 17.9844 16.7721 17.9699C16.8097 17.9555 16.8498 17.9487 16.89 17.95H18.43C18.5062 17.9499 18.5796 17.9787 18.6354 18.0307C18.6911 18.0827 18.7249 18.154 18.73 18.23V19.33C18.88 18.877 19.1689 18.4827 19.5558 18.2033C19.9426 17.9238 20.4078 17.7734 20.885 17.7734C21.3622 17.7734 21.8273 17.9238 22.2142 18.2033C22.6011 18.4827 22.89 18.877 23.04 19.33C23.1944 18.9283 23.4523 18.5745 23.7876 18.3046C24.1229 18.0347 24.5237 17.8583 24.9491 17.7934C25.3746 17.7284 25.8097 17.7771 26.2103 17.9346C26.6109 18.092 26.9627 18.3527 27.23 18.69C27.6352 19.514 27.7816 20.4413 27.65 21.35V26.69C27.6474 26.7732 27.6125 26.852 27.5528 26.9099C27.4931 26.9677 27.4132 27.0001 27.33 27H25.72C25.6403 26.9951 25.5654 26.9605 25.5099 26.9032C25.4544 26.8458 25.4223 26.7698 25.42 26.69V22.2C25.455 21.674 25.455 21.146 25.42 20.62C25.4032 20.506 25.3639 20.3965 25.3043 20.2978C25.2447 20.1992 25.1661 20.1134 25.073 20.0454C24.9799 19.9774 24.8743 19.9287 24.7621 19.902C24.65 19.8754 24.5337 19.8713 24.42 19.89C24.2036 19.8928 23.993 19.9599 23.8149 20.0828C23.6369 20.2057 23.4994 20.3788 23.42 20.58C23.2838 21.1086 23.2332 21.6555 23.27 22.2V26.69C23.2706 26.7658 23.2435 26.8391 23.1938 26.8962C23.144 26.9533 23.0751 26.9903 23 27H21.3C21.2221 26.9927 21.1496 26.9572 21.0962 26.9001C21.0428 26.8429 21.0121 26.7682 21.01 26.69V22.2C21.01 21.26 21.17 19.87 20.01 19.87C18.85 19.87 18.87 21.22 18.87 22.2V26.69C18.8702 26.7334 18.8613 26.7763 18.8439 26.816C18.8265 26.8557 18.8009 26.8914 18.7689 26.9206C18.7368 26.9498 18.699 26.972 18.6579 26.9856C18.6167 26.9993 18.5731 27.0042 18.53 27ZM49 17.77C51.45 17.77 52.77 19.87 52.77 22.54C52.77 25.21 51.33 27.17 49 27.17C46.67 27.17 45.29 25.07 45.29 22.45C45.29 19.83 46.63 17.77 49 17.77ZM49 19.5C47.79 19.5 47.71 21.15 47.71 22.19C47.71 23.23 47.71 25.43 48.99 25.43C50.27 25.43 50.33 23.65 50.33 22.56C50.3574 21.8018 50.2731 21.0437 50.08 20.31C50.0337 20.0645 49.8972 19.8452 49.6973 19.6953C49.4974 19.5454 49.2487 19.4757 49 19.5ZM56 27H54.32C54.2421 26.9927 54.1696 26.9572 54.1162 26.9001C54.0628 26.8429 54.0321 26.7682 54.03 26.69V18.22C54.042 18.1441 54.0809 18.075 54.1397 18.0254C54.1985 17.9759 54.2731 17.9491 54.35 17.95H55.88C55.9476 17.9486 56.0135 17.9708 56.0665 18.0128C56.1194 18.0548 56.156 18.1139 56.17 18.18V19.48C56.2894 18.9807 56.5775 18.5379 56.9856 18.2264C57.3937 17.9148 57.8968 17.7536 58.41 17.77C58.7914 17.7513 59.1709 17.8339 59.5099 18.0096C59.849 18.1852 60.1354 18.4476 60.34 18.77C60.702 19.6 60.85 20.508 60.77 21.41V26.74C60.758 26.816 60.719 26.8851 60.6603 26.9346C60.6015 26.9842 60.5269 27.011 60.45 27.01H58.83C58.7577 27.006 58.6892 26.9767 58.6362 26.9274C58.5833 26.8781 58.5492 26.8118 58.54 26.74V22.14C58.54 21.22 58.64 19.86 57.54 19.86C57.3242 19.8593 57.1132 19.9239 56.9347 20.0452C56.7562 20.1666 56.6187 20.3391 56.54 20.54C56.3384 21.0482 56.2497 21.5942 56.28 22.14V26.7C56.274 26.7743 56.2431 26.8444 56.1923 26.8989C56.1415 26.9533 56.0737 26.989 56 27ZM34 23C34.0607 23.6008 33.9534 24.2067 33.69 24.75C33.5854 24.9664 33.4242 25.1503 33.2235 25.2824C33.0228 25.4144 32.79 25.4897 32.55 25.5C31.91 25.5 31.55 25.02 31.55 24.31C31.55 22.9 32.81 22.65 34.01 22.65L34 23ZM35.66 27C35.6034 27.0415 35.5351 27.0638 35.465 27.0638C35.3949 27.0638 35.3266 27.0415 35.27 27C34.8865 26.6968 34.5641 26.3236 34.32 25.9C33.9959 26.3033 33.5796 26.6228 33.1063 26.8316C32.6329 27.0404 32.1163 27.1325 31.6 27.1C31.2625 27.1187 30.925 27.0641 30.6106 26.94C30.2962 26.8159 30.0124 26.6252 29.7787 26.3811C29.5449 26.1369 29.3668 25.845 29.2566 25.5255C29.1463 25.206 29.1066 24.8664 29.14 24.53C29.1179 23.9558 29.2743 23.3888 29.5877 22.907C29.901 22.4253 30.356 22.0525 30.89 21.84C31.8949 21.5054 32.9418 21.3136 34 21.27V21.06C34.0508 20.6491 33.9813 20.2323 33.8 19.86C33.6898 19.7202 33.5481 19.6083 33.3865 19.5336C33.2249 19.4589 33.0479 19.4234 32.87 19.43C32.5651 19.4088 32.2627 19.4982 32.0184 19.6819C31.7741 19.8656 31.6042 20.1312 31.54 20.43C31.5324 20.5037 31.5009 20.5729 31.4504 20.627C31.3998 20.6812 31.333 20.7174 31.26 20.73L29.66 20.56C29.6197 20.5554 29.5809 20.5423 29.546 20.5218C29.5111 20.5012 29.4809 20.4735 29.4573 20.4405C29.4338 20.4075 29.4174 20.37 29.4092 20.3303C29.4011 20.2906 29.4013 20.2496 29.41 20.21C29.78 18.27 31.53 17.69 33.1 17.69C34.0015 17.6558 34.8852 17.9468 35.59 18.51C36.39 19.26 36.31 20.26 36.31 21.35V23.92C36.3159 24.4871 36.5376 25.0306 36.93 25.44C36.959 25.4689 36.9821 25.5031 36.9978 25.5409C37.0135 25.5786 37.0216 25.6191 37.0216 25.66C37.0216 25.7009 37.0135 25.7414 36.9978 25.7792C36.9821 25.817 36.959 25.8512 36.93 25.88L35.65 27H35.66ZM12.36 23C12.4256 23.601 12.3181 24.2082 12.05 24.75C11.9454 24.9664 11.7842 25.1503 11.5835 25.2824C11.3828 25.4144 11.15 25.4897 10.91 25.5C10.28 25.5 9.90999 25.02 9.90999 24.31C9.90999 22.9 11.17 22.65 12.36 22.65V23ZM14 27C13.9434 27.0415 13.8751 27.0638 13.805 27.0638C13.7349 27.0638 13.6666 27.0415 13.61 27C13.2324 26.6936 12.9138 26.3208 12.67 25.9C12.3503 26.2962 11.9423 26.612 11.4787 26.8221C11.015 27.0322 10.5086 27.1308 9.99999 27.11C9.6591 27.1355 9.31676 27.0859 8.99711 26.9648C8.67746 26.8436 8.38827 26.6538 8.14991 26.4088C7.91155 26.1637 7.72982 25.8694 7.61753 25.5465C7.50524 25.2237 7.46512 24.8801 7.49999 24.54C7.4801 23.9649 7.63855 23.3977 7.95364 22.9161C8.26872 22.4345 8.72501 22.0622 9.25999 21.85C10.26 21.511 11.305 21.316 12.36 21.27V21.06C12.4108 20.6491 12.3413 20.2323 12.16 19.86C12.0504 19.7196 11.9088 19.6072 11.747 19.5325C11.5853 19.4577 11.408 19.4226 11.23 19.43C10.9263 19.4091 10.6253 19.4989 10.3826 19.6827C10.14 19.8666 9.97209 20.132 9.90999 20.43C9.89879 20.504 9.86485 20.5726 9.81288 20.6263C9.76092 20.6801 9.6935 20.7163 9.61999 20.73L7.99999 20.56C7.96062 20.5541 7.92288 20.5402 7.88914 20.5191C7.85539 20.4979 7.82636 20.4701 7.80385 20.4373C7.78133 20.4044 7.76582 20.3673 7.75827 20.3282C7.75073 20.2891 7.75131 20.2489 7.75999 20.21C8.11999 18.27 9.87999 17.69 11.45 17.69C12.3487 17.6537 13.2301 17.9451 13.93 18.51C14.73 19.26 14.66 20.26 14.66 21.35V23.92C14.6659 24.4871 14.8876 25.0306 15.28 25.44C15.38 25.59 15.41 25.77 15.28 25.88L14 27Z" fill="white"/>
<path d="M67.49 27.0899C67.1334 27.1057 66.7772 27.0502 66.4424 26.9266C66.1075 26.8029 65.8007 26.6137 65.54 26.3699C65.2903 26.1265 65.0946 25.8334 64.9654 25.5096C64.8362 25.1857 64.7764 24.8383 64.79 24.4899C64.7783 24.1081 64.8552 23.7288 65.0149 23.3817C65.1745 23.0347 65.4124 22.7294 65.71 22.4899C66.4169 21.9511 67.2925 21.6817 68.18 21.7299C68.854 21.7399 69.525 21.8279 70.18 21.9899V20.9899C70.2028 20.7714 70.1809 20.5506 70.1155 20.3408C70.0502 20.1311 69.9429 19.9368 69.8 19.7699C69.4107 19.5032 68.9396 19.3828 68.47 19.4299C68.0476 19.4302 67.626 19.467 67.21 19.5399C66.768 19.6076 66.3329 19.7147 65.91 19.8599C65.8123 19.888 65.7116 19.9048 65.61 19.9099C65.46 19.9099 65.39 19.7999 65.39 19.5799V18.9399C65.3787 18.8221 65.4031 18.7037 65.46 18.5999C65.5582 18.4935 65.6822 18.4143 65.82 18.3699C66.7802 18.0169 67.7972 17.8441 68.82 17.8599C69.7053 17.7903 70.5868 18.0346 71.31 18.5499C71.5935 18.8272 71.8122 19.1638 71.9505 19.5354C72.0888 19.9071 72.1432 20.3047 72.11 20.6999V26.5099C72.1169 26.561 72.1118 26.613 72.095 26.6618C72.0781 26.7105 72.0501 26.7546 72.0132 26.7906C71.9763 26.8266 71.9314 26.8534 71.8822 26.8689C71.833 26.8844 71.7809 26.8882 71.73 26.8799H70.8C70.54 26.8799 70.4 26.7699 70.37 26.5399L70.28 26.0399C69.8936 26.3557 69.4622 26.6119 69 26.7999C68.5214 26.9974 68.0077 27.0961 67.49 27.0899ZM68.06 25.6499C68.4035 25.6344 68.7417 25.56 69.06 25.4299C69.4432 25.2772 69.8034 25.0719 70.13 24.8199V23.1699C69.6137 23.0606 69.0877 23.0036 68.56 22.9999C67.36 22.9999 66.77 23.4599 66.77 24.3899C66.7589 24.5616 66.7834 24.7336 66.842 24.8954C66.9005 25.0571 66.9917 25.205 67.11 25.3299C67.373 25.5569 67.714 25.6709 68.06 25.6499ZM74.3 30.3799C74.2482 30.3881 74.1952 30.384 74.1454 30.3678C74.0955 30.3516 74.0502 30.3239 74.0131 30.2868C73.9761 30.2497 73.9483 30.2044 73.9321 30.1545C73.9159 30.1047 73.9118 30.0517 73.92 29.9999V18.4499C73.9111 18.398 73.9147 18.3447 73.9307 18.2946C73.9466 18.2444 73.9744 18.1987 74.0116 18.1615C74.0488 18.1243 74.0945 18.0965 74.1446 18.0806C74.1948 18.0646 74.2481 18.061 74.3 18.0699H75.3C75.3513 18.0629 75.4034 18.0662 75.4534 18.0795C75.5034 18.0929 75.5503 18.1161 75.5912 18.1477C75.6322 18.1794 75.6664 18.2188 75.692 18.2639C75.7175 18.3089 75.7338 18.3585 75.74 18.4099L75.85 18.9399C76.241 18.5845 76.6911 18.3002 77.18 18.0999C77.6675 17.9087 78.1864 17.8104 78.71 17.8099C79.1995 17.7978 79.6852 17.8988 80.1293 18.1053C80.5733 18.3117 80.9637 18.6178 81.27 18.9999C81.9719 19.9489 82.3251 21.1109 82.27 22.2899C82.2869 23.1467 82.1269 23.9978 81.8 24.7899C81.5223 25.4494 81.0649 26.0177 80.48 26.4299C79.9068 26.8045 79.2347 26.9995 78.55 26.9899C78.072 26.9921 77.5977 26.9074 77.15 26.7399C76.7293 26.5925 76.3395 26.3688 76 26.0799V29.9999C76.0089 30.0518 76.0053 30.1051 75.9893 30.1553C75.9734 30.2054 75.9456 30.2511 75.9084 30.2883C75.8712 30.3255 75.8255 30.3533 75.7754 30.3692C75.7252 30.3852 75.6719 30.3888 75.62 30.3799H74.3ZM78 25.3799C78.3143 25.4024 78.6292 25.3454 78.9158 25.2144C79.2024 25.0833 79.4514 24.8823 79.64 24.6299C80.0448 23.9416 80.2297 23.1461 80.17 22.3499C80.2284 21.5646 80.0471 20.78 79.65 20.0999C79.4545 19.8562 79.2011 19.6654 78.9128 19.5449C78.6246 19.4243 78.3108 19.3779 78 19.4099C77.2596 19.4085 76.5367 19.6355 75.93 20.0599V24.7499C76.5322 25.1856 77.2567 25.4201 78 25.4199V25.3799ZM84.08 30.3799C84.0282 30.3884 83.9751 30.3844 83.9251 30.3683C83.8752 30.3522 83.8298 30.3244 83.7926 30.2873C83.7555 30.2502 83.7277 30.2047 83.7116 30.1548C83.6955 30.1048 83.6915 30.0517 83.7 29.9999V18.4499C83.6913 18.3981 83.6951 18.3449 83.7112 18.2948C83.7272 18.2447 83.7549 18.1992 83.7921 18.162C83.8293 18.1248 83.8748 18.0971 83.9249 18.0811C83.975 18.065 84.0282 18.0612 84.08 18.0699H85.08C85.1843 18.0582 85.289 18.087 85.3728 18.1502C85.4565 18.2135 85.5127 18.3064 85.53 18.4099L85.63 18.9399C86.025 18.5839 86.478 18.2999 86.97 18.0999C87.454 17.9079 87.97 17.8099 88.49 17.8099C88.9795 17.7978 89.4653 17.8988 89.9093 18.1053C90.3533 18.3117 90.7437 18.6178 91.05 18.9999C91.7519 19.9489 92.1051 21.1109 92.05 22.2899C92.072 23.1471 91.9118 23.9992 91.58 24.7899C91.3023 25.4494 90.8449 26.0177 90.26 26.4299C89.6799 26.8149 88.9961 27.0138 88.3 26.9999C87.8253 27.0023 87.3542 26.9175 86.91 26.7499C86.4778 26.6004 86.0799 26.3658 85.74 26.0599V29.9999C85.7487 30.0518 85.7449 30.1049 85.7288 30.155C85.7128 30.2051 85.6851 30.2506 85.6479 30.2878C85.6107 30.325 85.5652 30.3527 85.5151 30.3687C85.465 30.3848 85.4119 30.3886 85.36 30.3799H84.08ZM87.79 25.3799C88.1029 25.4024 88.4164 25.3454 88.7014 25.2143C88.9863 25.0832 89.2335 24.8822 89.42 24.6299C89.8349 23.9589 90.0371 23.178 90 22.3899C90.0554 21.6035 89.8706 20.8189 89.47 20.1399C89.2814 19.8912 89.0332 19.694 88.7484 19.5665C88.4635 19.4389 88.1511 19.3851 87.84 19.4099C87.103 19.4099 86.384 19.6369 85.78 20.0599V24.7499C86.3644 25.1761 87.0668 25.4103 87.79 25.4199V25.3799ZM95.84 27.0899C94.9803 27.0971 94.1264 26.948 93.32 26.6499C93.1861 26.6085 93.0654 26.5327 92.97 26.4299C92.9098 26.3163 92.8821 26.1883 92.89 26.0599V25.4399C92.89 25.2099 92.97 25.0899 93.13 25.0899C93.293 25.1099 93.454 25.1459 93.61 25.1999C94.3277 25.4135 95.0713 25.5279 95.82 25.5399C96.256 25.5689 96.691 25.4789 97.08 25.2799C97.209 25.1873 97.3124 25.0635 97.3806 24.9201C97.4488 24.7767 97.4795 24.6184 97.47 24.4599C97.476 24.347 97.4577 24.2341 97.4163 24.1288C97.3749 24.0236 97.3113 23.9285 97.23 23.8499C96.9676 23.6332 96.6652 23.4702 96.34 23.3699L94.91 22.8199C94.3711 22.6838 93.8921 22.374 93.5468 21.9384C93.2016 21.5028 93.0094 20.9656 93 20.4099C92.9862 20.0452 93.0598 19.6825 93.2146 19.352C93.3694 19.0215 93.601 18.7328 93.89 18.5099C94.5875 18.0111 95.4338 17.7643 96.29 17.8099C97.0214 17.8132 97.7474 17.9348 98.44 18.1699C98.571 18.1999 98.69 18.2699 98.78 18.3699C98.8523 18.4864 98.8839 18.6235 98.87 18.7599V19.3599C98.8764 19.4538 98.8555 19.5475 98.81 19.6299C98.7827 19.6569 98.7496 19.6773 98.7132 19.6894C98.6768 19.7016 98.638 19.7051 98.6 19.6999C98.4517 19.6834 98.3046 19.6567 98.16 19.6199C97.5889 19.4647 97.0015 19.3775 96.41 19.3599C96.0067 19.3343 95.6036 19.4135 95.24 19.5899C95.1198 19.6685 95.0224 19.7773 94.9574 19.9054C94.8925 20.0336 94.8623 20.1765 94.87 20.3199C94.8656 20.4369 94.8876 20.5534 94.9343 20.6607C94.9811 20.768 95.0514 20.8634 95.14 20.9399C95.446 21.1559 95.783 21.3249 96.14 21.4399L97.4 21.9999C97.97 22.1819 98.484 22.5099 98.89 22.9499C99.208 23.3409 99.372 23.8359 99.35 24.3399C99.3598 24.7224 99.2809 25.102 99.1196 25.449C98.9582 25.796 98.7188 26.1009 98.42 26.3399C97.6722 26.8799 96.7607 27.1449 95.84 27.0899ZM104.17 26.9999C103.447 27.0569 102.73 26.831 102.17 26.3699C101.933 26.1066 101.753 25.798 101.64 25.4628C101.526 25.1275 101.482 24.7727 101.51 24.4199V19.6199H100.41C100.333 19.6293 100.254 19.6119 100.188 19.5706C100.122 19.5293 100.072 19.4666 100.046 19.3929C100.029 19.3439 100.023 19.2915 100.03 19.2399V18.7399C100.018 18.6257 100.05 18.5111 100.12 18.4199C100.194 18.3495 100.289 18.304 100.39 18.2899L101.58 18.1199L101.84 16.0299C101.841 15.9214 101.884 15.8176 101.96 15.7399C102.049 15.6734 102.159 15.6415 102.27 15.6499H103.17C103.221 15.6438 103.273 15.6494 103.322 15.6664C103.371 15.6833 103.416 15.7111 103.452 15.7477C103.489 15.7843 103.517 15.8287 103.534 15.8776C103.55 15.9264 103.556 15.9785 103.55 16.0299V18.0299H105.66C105.712 18.0212 105.765 18.025 105.815 18.0411C105.865 18.0571 105.911 18.0848 105.948 18.122C105.985 18.1592 106.013 18.2047 106.029 18.2548C106.045 18.3049 106.049 18.3581 106.04 18.4099V19.1999C106.049 19.2518 106.045 19.3051 106.029 19.3552C106.013 19.4054 105.985 19.4509 105.948 19.4879C105.911 19.5251 105.865 19.5528 105.815 19.5688C105.765 19.5848 105.712 19.5886 105.66 19.5799H103.55V24.2299C103.531 24.3804 103.546 24.5334 103.594 24.6772C103.643 24.821 103.723 24.9518 103.83 25.0599C104.121 25.2638 104.477 25.3528 104.83 25.3099C105.041 25.3179 105.253 25.2999 105.46 25.2599C105.592 25.2319 105.725 25.2149 105.86 25.2099C106.05 25.2099 106.15 25.3199 106.15 25.5399V26.1599C106.163 26.2931 106.132 26.4269 106.06 26.5399C105.961 26.637 105.836 26.7031 105.7 26.7299C105.204 26.8852 104.689 26.9759 104.17 26.9999ZM110.88 27.0899C110.302 27.1229 109.724 27.03 109.185 26.8177C108.646 26.6053 108.16 26.2785 107.76 25.8599C106.965 24.9041 106.564 23.6809 106.64 22.4399C106.556 21.1917 106.957 19.9593 107.76 18.9999C108.61 18.2158 109.724 17.7804 110.88 17.7804C112.036 17.7804 113.15 18.2158 114 18.9999C114.791 19.9542 115.191 21.1725 115.12 22.4099C115.199 23.6604 114.798 24.894 114 25.8599C113.6 26.2787 113.114 26.6056 112.575 26.818C112.037 27.0303 111.458 27.1231 110.88 27.0899ZM110.88 25.4899C112.32 25.4899 113.05 24.4899 113.05 22.4899C113.05 20.4899 112.32 19.4899 110.88 19.4899C109.44 19.4899 108.71 20.4899 108.71 22.4899C108.71 24.4899 109.43 25.4899 110.88 25.4899ZM116.94 26.8299C116.889 26.8382 116.837 26.8344 116.788 26.8189C116.739 26.8034 116.694 26.7766 116.657 26.7406C116.62 26.7046 116.592 26.6605 116.575 26.6118C116.558 26.563 116.553 26.511 116.56 26.4599V18.4599C116.551 18.408 116.555 18.3548 116.571 18.3046C116.587 18.2544 116.615 18.2089 116.652 18.1719C116.689 18.1347 116.735 18.107 116.785 18.091C116.835 18.075 116.888 18.0712 116.94 18.0799H117.85C117.968 18.0673 118.087 18.0917 118.19 18.1499C118.265 18.2128 118.311 18.3027 118.32 18.3999L118.53 19.3999C118.89 18.9659 119.327 18.6029 119.82 18.3299C120.225 18.1209 120.675 18.0149 121.13 18.0199H121.2C121.323 18.0029 121.447 18.0029 121.57 18.0199C121.653 18.0436 121.724 18.097 121.77 18.1699C121.82 18.2899 121.84 18.4199 121.83 18.5499V19.4799C121.83 19.7199 121.73 19.8399 121.52 19.8399H120.85C120.048 19.8282 119.26 20.0582 118.59 20.4999V26.4999C118.59 26.7499 118.47 26.8699 118.21 26.8699L116.94 26.8299ZM126.7 27.0899C126.101 27.1321 125.499 27.05 124.933 26.8487C124.367 26.6473 123.848 26.3311 123.41 25.9199C122.608 24.9719 122.206 23.7489 122.29 22.5099C122.216 21.2602 122.608 20.0275 123.39 19.0499C123.777 18.6301 124.252 18.3012 124.781 18.0868C125.31 17.8724 125.88 17.7778 126.45 17.8099C126.922 17.7795 127.394 17.8454 127.84 18.0035C128.285 18.1617 128.693 18.4088 129.04 18.7299C129.356 19.0836 129.598 19.4964 129.752 19.9445C129.907 20.3926 129.97 20.8669 129.94 21.3399C129.937 21.7479 129.911 22.1549 129.86 22.5599C129.849 22.6711 129.804 22.776 129.73 22.8599C129.66 22.9171 129.57 22.9457 129.48 22.9399H124.17C124.158 23.2924 124.217 23.6436 124.342 23.9732C124.468 24.3028 124.657 24.6042 124.9 24.8599C125.502 25.3133 126.249 25.5303 127 25.4699C127.734 25.4615 128.464 25.3538 129.17 25.1499L129.37 25.0899H129.5C129.67 25.0899 129.75 25.1999 129.75 25.4299V25.9999C129.761 26.1273 129.737 26.2553 129.68 26.3699C129.583 26.4753 129.458 26.5515 129.32 26.5899C128.487 26.923 127.597 27.0927 126.7 27.0899ZM128.15 21.5799V21.4399C128.191 20.8689 128.028 20.3019 127.69 19.8399C127.527 19.6506 127.321 19.5022 127.09 19.4067C126.859 19.3112 126.609 19.2712 126.36 19.2899C126.077 19.2798 125.795 19.3299 125.533 19.4368C125.271 19.5436 125.035 19.7049 124.84 19.9099C124.43 20.3722 124.193 20.9624 124.17 21.5799H128.15ZM47.71 12.6799C47.3413 12.6912 46.9826 12.5585 46.71 12.3099C46.5778 12.1809 46.4753 12.0245 46.4097 11.8518C46.344 11.6791 46.3169 11.4942 46.33 11.3099C46.328 11.1196 46.3683 10.9312 46.4478 10.7583C46.5273 10.5854 46.6442 10.4323 46.79 10.3099C47.1322 10.0333 47.5601 9.88481 48 9.88991C48.385 9.89991 48.767 9.95291 49.14 10.0499V9.44991C49.185 9.21365 49.1347 8.96917 49 8.76991C48.7811 8.61756 48.5157 8.54679 48.25 8.56991C47.8266 8.56641 47.4052 8.6271 47 8.74991L46.74 8.80991C46.67 8.80991 46.63 8.75991 46.63 8.64991V8.40991C46.6101 8.35498 46.6101 8.29483 46.63 8.23991C46.6645 8.1922 46.7137 8.15708 46.77 8.13991C46.998 8.04591 47.236 7.97991 47.48 7.93991C47.76 7.88891 48.045 7.86191 48.33 7.85991C48.7798 7.82308 49.2276 7.95103 49.59 8.21991C49.7346 8.35795 49.8464 8.52658 49.9174 8.71346C49.9883 8.90033 50.0165 9.10071 50 9.29991V12.3799C50.0033 12.4043 50.0009 12.4292 49.993 12.4525C49.9852 12.4759 49.972 12.4971 49.9546 12.5145C49.9372 12.5319 49.916 12.5451 49.8926 12.5529C49.8693 12.5608 49.8444 12.5632 49.82 12.5599H49.44C49.4156 12.5627 49.3908 12.5604 49.3673 12.5532C49.3438 12.546 49.3219 12.5341 49.3032 12.5182C49.2845 12.5023 49.2692 12.4827 49.2583 12.4606C49.2474 12.4385 49.2412 12.4145 49.24 12.3899V12.0899C49.032 12.276 48.7913 12.4218 48.53 12.5199C48.27 12.6259 47.991 12.6799 47.71 12.6799ZM47.93 11.9999C48.142 11.9959 48.352 11.9559 48.55 11.8799C48.773 11.7999 48.983 11.6849 49.17 11.5399V10.6199C48.8418 10.5464 48.5064 10.5095 48.17 10.5099C47.5 10.5099 47.17 10.7699 47.17 11.2899C47.1632 11.3866 47.1766 11.4836 47.2093 11.5749C47.242 11.6661 47.2933 11.7496 47.36 11.8199C47.4369 11.8884 47.5275 11.9399 47.6257 11.9709C47.724 12.0019 47.8277 12.0118 47.93 11.9999ZM52.48 12.5599C52.4216 12.5797 52.3584 12.5797 52.3 12.5599C52.3 12.5599 52.22 12.4699 52.17 12.3499L50.58 8.34991C50.5842 8.31336 50.5842 8.27645 50.58 8.23991C50.5754 8.20673 50.5754 8.17308 50.58 8.13991C50.58 8.05991 50.58 8.02991 50.71 8.02991H51.24C51.3025 8.01503 51.3675 8.01503 51.43 8.02991C51.4897 8.08663 51.5315 8.15965 51.55 8.23991L52.78 11.7499L54 8.23991C54.0042 8.15553 54.0282 8.07333 54.07 7.99991C54.1326 7.98607 54.1974 7.98607 54.26 7.99991H54.76C54.85 7.99991 54.89 7.99991 54.89 8.10991C54.8947 8.14307 54.8947 8.17674 54.89 8.20991C54.8859 8.24646 54.8859 8.28335 54.89 8.31991L53.31 12.3199C53.31 12.4399 53.22 12.5099 53.18 12.5299C53.1214 12.5483 53.0586 12.5483 53 12.5299L52.48 12.5599ZM56.66 12.6799C56.2919 12.6871 55.9348 12.5549 55.66 12.3099C55.4078 12.0322 55.2757 11.6661 55.2926 11.2913C55.3094 10.9166 55.4739 10.5638 55.75 10.3099C56.1009 10.0211 56.5459 9.87161 57 9.88991C57.382 9.89991 57.76 9.95291 58.13 10.0499V9.44991C58.1437 9.32744 58.1312 9.20346 58.0932 9.08621C58.0553 8.96897 57.9928 8.86114 57.91 8.76991C57.6926 8.61432 57.426 8.54322 57.16 8.56991C56.75 8.56991 56.342 8.62991 55.95 8.74991L55.69 8.80991C55.61 8.80991 55.58 8.75991 55.58 8.64991V8.40991C55.5656 8.35415 55.5656 8.29566 55.58 8.23991C55.6207 8.19439 55.6723 8.15998 55.73 8.13991C55.955 8.04591 56.19 7.97991 56.43 7.93991C56.7105 7.88905 56.9949 7.86229 57.28 7.85991C57.7328 7.82337 58.1837 7.95117 58.55 8.21991C58.7018 8.35418 58.8212 8.52113 58.8991 8.7082C58.977 8.89527 59.0115 9.09758 59 9.29991V12.3799C59.0033 12.4043 59.0009 12.4292 58.993 12.4525C58.9852 12.4759 58.972 12.4971 58.9546 12.5145C58.9372 12.5319 58.916 12.5451 58.8926 12.5529C58.8693 12.5608 58.8444 12.5632 58.82 12.5599H58.43C58.3812 12.5627 58.3332 12.5467 58.2959 12.515C58.2587 12.4833 58.2351 12.4385 58.23 12.3899V12.0899C58.0184 12.2762 57.7743 12.4219 57.51 12.5199C57.2403 12.6297 56.9512 12.6842 56.66 12.6799ZM56.87 11.9999C57.0822 11.9978 57.2923 11.9572 57.49 11.8799C57.715 11.8039 57.925 11.6899 58.11 11.5399V10.6199C57.7819 10.5457 57.4464 10.5088 57.11 10.5099C56.443 10.5099 56.11 10.7699 56.11 11.2899C56.101 11.4847 56.1693 11.6752 56.3 11.8199C56.3782 11.8864 56.4689 11.9366 56.5668 11.9675C56.6647 11.9984 56.7678 12.0094 56.87 11.9999ZM60.63 7.18991C60.5568 7.19754 60.4827 7.1889 60.4132 7.16461C60.3437 7.14032 60.2804 7.10097 60.2279 7.04938C60.1753 6.99779 60.1348 6.93524 60.1093 6.86618C60.0837 6.79712 60.0737 6.72327 60.08 6.64991C60.0735 6.50354 60.1237 6.36029 60.22 6.24991C60.2748 6.19872 60.3394 6.15907 60.4098 6.13331C60.4802 6.10754 60.5551 6.09618 60.63 6.09991C60.705 6.09499 60.7802 6.1058 60.8508 6.13163C60.9214 6.15746 60.9859 6.19774 61.04 6.24991C61.091 6.3028 61.1306 6.36559 61.1564 6.43438C61.1822 6.50317 61.1936 6.57652 61.19 6.64991C61.1746 6.78684 61.1064 6.91238 61 6.99991C60.954 7.05446 60.8975 7.09935 60.834 7.13196C60.7705 7.16457 60.7012 7.18427 60.63 7.18991ZM60.36 12.5599C60.3356 12.5632 60.3107 12.5608 60.2874 12.5529C60.2641 12.5451 60.2428 12.5319 60.2254 12.5145C60.208 12.4971 60.1948 12.4759 60.187 12.4525C60.1791 12.4292 60.1767 12.4043 60.18 12.3799V8.17991C60.1767 8.15549 60.1791 8.13064 60.187 8.1073C60.1948 8.08396 60.208 8.06275 60.2254 8.04533C60.2428 8.02791 60.2641 8.01474 60.2874 8.00686C60.3107 7.99899 60.3356 7.9966 60.36 7.99991H60.9C61.01 7.99991 61.07 8.05991 61.07 8.17991V12.3799C61.07 12.4999 61.01 12.5599 60.9 12.5599H60.36ZM63.29 12.5999C63.1564 12.606 63.023 12.5853 62.8976 12.5389C62.7722 12.4925 62.6574 12.4215 62.56 12.3299C62.3787 12.1082 62.2893 11.8255 62.31 11.5399V6.07991C62.3067 6.05549 62.3091 6.03064 62.317 6.0073C62.3248 5.98396 62.338 5.96275 62.3554 5.94533C62.3728 5.9279 62.3941 5.91474 62.4174 5.90686C62.4407 5.89899 62.4656 5.8966 62.49 5.89991H63C63.0244 5.8966 63.0493 5.89899 63.0726 5.90686C63.096 5.91474 63.1172 5.9279 63.1346 5.94533C63.152 5.96275 63.1652 5.98396 63.173 6.0073C63.1809 6.03064 63.1833 6.05549 63.18 6.07991V11.4899C63.1734 11.5959 63.2015 11.7012 63.26 11.7899C63.3411 11.8569 63.4453 11.8892 63.55 11.8799H63.76C63.8016 11.8627 63.8484 11.8627 63.89 11.8799C63.9015 11.9225 63.9015 11.9673 63.89 12.0099V12.2999C63.9028 12.3457 63.9028 12.3941 63.89 12.4399C63.8526 12.4802 63.8037 12.5081 63.75 12.5199C63.6 12.5609 63.446 12.5879 63.29 12.5999ZM65.85 12.6799C65.4818 12.6881 65.1242 12.5558 64.85 12.3099C64.5978 12.0322 64.4657 11.6661 64.4826 11.2913C64.4994 10.9166 64.6639 10.5638 64.94 10.3099C65.2964 10.0259 65.7451 9.88351 66.2 9.90991C66.582 9.91991 66.96 9.97391 67.33 10.0699V9.46991C67.3437 9.34744 67.3312 9.22346 67.2932 9.10621C67.2553 8.98897 67.1928 8.88114 67.11 8.78991C66.8911 8.63756 66.6257 8.56679 66.36 8.58991C65.947 8.58991 65.536 8.64991 65.14 8.76991L64.88 8.82991C64.81 8.82991 64.78 8.77991 64.78 8.66991V8.40991C64.7656 8.35415 64.7656 8.29566 64.78 8.23991C64.8186 8.19198 64.8709 8.15707 64.93 8.13991C65.155 8.04591 65.39 7.97991 65.63 7.93991C65.91 7.88991 66.195 7.86191 66.48 7.85991C66.9298 7.82308 67.3776 7.95103 67.74 8.21991C67.8846 8.35795 67.9964 8.52658 68.0674 8.71346C68.1383 8.90033 68.1665 9.10071 68.15 9.29991V12.3799C68.1533 12.4043 68.1509 12.4292 68.143 12.4525C68.1352 12.4759 68.122 12.4971 68.1046 12.5145C68.0872 12.5319 68.066 12.5451 68.0426 12.5529C68.0193 12.5608 67.9944 12.5632 67.97 12.5599H67.58C67.5312 12.5627 67.4832 12.5467 67.4459 12.515C67.4087 12.4833 67.3851 12.4385 67.38 12.3899V12.0899C67.167 12.2739 66.923 12.4199 66.66 12.5199C66.4027 12.6245 66.1277 12.6789 65.85 12.6799ZM66.07 11.9999C66.282 11.9969 66.492 11.9559 66.69 11.8799C66.914 11.8019 67.124 11.6869 67.31 11.5399V10.6199C66.9819 10.5457 66.6464 10.5088 66.31 10.5099C65.643 10.5099 65.31 10.7699 65.31 11.2899C65.3033 11.3866 65.3167 11.4836 65.3494 11.5749C65.3821 11.6661 65.4334 11.7495 65.5 11.8199C65.5782 11.8864 65.6689 11.9366 65.7668 11.9675C65.8647 11.9984 65.9678 12.0094 66.07 11.9999ZM71.63 12.6599C71.0893 12.6644 70.5685 12.4561 70.18 12.0799L70.12 12.3799C70.1188 12.4058 70.1123 12.4311 70.1009 12.4544C70.0895 12.4777 70.0735 12.4984 70.0539 12.5152C70.0342 12.5321 70.0113 12.5448 69.9865 12.5524C69.9618 12.5601 69.9358 12.5627 69.91 12.5599H69.53C69.5056 12.5632 69.4807 12.5608 69.4574 12.5529C69.434 12.5451 69.4128 12.5319 69.3954 12.5145C69.378 12.4971 69.3648 12.4759 69.357 12.4525C69.3491 12.4292 69.3467 12.4043 69.35 12.3799V6.07991C69.3467 6.05549 69.3491 6.03064 69.357 6.0073C69.3648 5.98396 69.378 5.96275 69.3954 5.94533C69.4128 5.9279 69.434 5.91474 69.4574 5.90686C69.4807 5.89899 69.5056 5.8966 69.53 5.89991H70.06C70.0844 5.8966 70.1093 5.89899 70.1326 5.90686C70.156 5.91474 70.1772 5.9279 70.1946 5.94533C70.212 5.96275 70.2252 5.98396 70.233 6.0073C70.2409 6.03064 70.2433 6.05549 70.24 6.07991V8.42991C70.6376 8.06939 71.1533 7.86667 71.69 7.85991C71.9535 7.8477 72.2162 7.89849 72.4562 8.00805C72.6962 8.11761 72.9066 8.28279 73.07 8.48991C73.435 8.98991 73.615 9.60191 73.58 10.2199C73.6043 10.8633 73.3986 11.4943 73 11.9999C72.8391 12.2093 72.6313 12.3781 72.3934 12.4927C72.1555 12.6073 71.894 12.6646 71.63 12.6599ZM71.42 11.9399C72.25 11.9399 72.67 11.3799 72.67 10.2599C72.7 9.81921 72.5953 9.37981 72.37 8.99991C72.2594 8.86181 72.1171 8.75243 71.9552 8.68106C71.7933 8.60968 71.6166 8.57841 71.44 8.58991C71.0061 8.59279 70.5849 8.73669 70.24 8.99991V11.4999C70.5719 11.7765 70.9881 11.9317 71.42 11.9399ZM75.52 12.5999C75.3864 12.606 75.253 12.5852 75.1277 12.5388C75.0023 12.4925 74.8875 12.4214 74.79 12.3299C74.6087 12.1082 74.5193 11.8255 74.54 11.5399V6.07991C74.5352 6.04316 74.5432 6.00588 74.5627 5.97437C74.5822 5.94285 74.612 5.91902 74.647 5.90691C74.6705 5.89895 74.6955 5.89656 74.72 5.89991H75.25C75.2744 5.8966 75.2993 5.89899 75.3226 5.90686C75.346 5.91474 75.3672 5.9279 75.3846 5.94533C75.402 5.96275 75.4152 5.98396 75.423 6.0073C75.4309 6.03064 75.4333 6.05549 75.43 6.07991V11.4899C75.4212 11.5977 75.4534 11.7048 75.52 11.7899C75.5577 11.8238 75.6021 11.8494 75.6504 11.8649C75.6986 11.8804 75.7496 11.8855 75.8 11.8799H76.13C76.1414 11.9225 76.1414 11.9673 76.13 12.0099V12.2999C76.1428 12.3457 76.1428 12.3941 76.13 12.4399C76.0926 12.4802 76.0437 12.5081 75.99 12.5199C75.8364 12.562 75.6789 12.5888 75.52 12.5999ZM79 12.6899C78.6928 12.7126 78.3842 12.67 78.0946 12.5649C77.8051 12.4598 77.5411 12.2945 77.32 12.0799C76.9061 11.5714 76.7021 10.9239 76.75 10.2699C76.7118 9.62631 76.9151 8.99161 77.32 8.48991C77.522 8.27387 77.7693 8.10532 78.0443 7.99638C78.3192 7.88744 78.6149 7.84083 78.91 7.85991C79.1497 7.84459 79.39 7.87935 79.6155 7.96199C79.8411 8.04464 80.0469 8.17334 80.22 8.33991C80.549 8.71791 80.714 9.20991 80.68 9.70991C80.694 9.90291 80.694 10.0969 80.68 10.2899C80.6923 10.3358 80.6923 10.3841 80.68 10.4299C80.6349 10.4468 80.5851 10.4468 80.54 10.4299H77.6C77.585 10.6433 77.6126 10.8575 77.6813 11.0601C77.75 11.2627 77.8583 11.4496 78 11.6099C78.1535 11.7448 78.3328 11.8472 78.5271 11.9108C78.7213 11.9744 78.9264 11.9979 79.13 11.9799C79.303 11.9899 79.477 11.9899 79.65 11.9799C79.86 11.9399 80.067 11.8859 80.27 11.8199H80.46C80.54 11.8199 80.58 11.8699 80.58 11.9799V12.2299C80.5999 12.2848 80.5999 12.345 80.58 12.3999C80.5406 12.4469 80.4886 12.4816 80.43 12.4999C80.2244 12.5869 80.0097 12.6506 79.79 12.6899C79.5274 12.7173 79.2626 12.7173 79 12.6899ZM79.86 9.87991C79.8665 9.80004 79.8665 9.71978 79.86 9.63991C79.8792 9.34058 79.7865 9.04479 79.6 8.80991C79.5002 8.71588 79.3821 8.6434 79.2531 8.59695C79.124 8.5505 78.9868 8.53108 78.85 8.53991C78.6884 8.52984 78.5264 8.55404 78.3748 8.61091C78.2231 8.66777 78.0852 8.75603 77.97 8.86991C77.7396 9.15248 77.6126 9.50529 77.61 9.86991L79.86 9.87991ZM84.93 12.6799C84.5618 12.6881 84.2042 12.5558 83.93 12.3099C83.6778 12.0322 83.5457 11.6661 83.5626 11.2913C83.5794 10.9166 83.7439 10.5638 84.02 10.3099C84.3764 10.0259 84.8251 9.88351 85.28 9.90991C85.662 9.91991 86.04 9.97391 86.41 10.0699V9.46991C86.4236 9.34745 86.411 9.2235 86.3731 9.10627C86.3351 8.98905 86.2727 8.88121 86.19 8.78991C85.9711 8.63756 85.7057 8.56679 85.44 8.58991C85.027 8.58991 84.616 8.64991 84.22 8.76991L83.96 8.82991C83.89 8.82991 83.85 8.77991 83.85 8.66991V8.40991C83.8347 8.35428 83.8347 8.29554 83.85 8.23991C83.8886 8.19198 83.9409 8.15707 84 8.13991C84.225 8.04591 84.46 7.97991 84.7 7.93991C84.98 7.88991 85.265 7.86191 85.55 7.85991C85.9998 7.82308 86.4476 7.95103 86.81 8.21991C86.9546 8.35795 87.0664 8.52658 87.1374 8.71346C87.2083 8.90033 87.2365 9.10071 87.22 9.29991V12.3799C87.2232 12.4042 87.2208 12.4289 87.213 12.4521C87.2052 12.4753 87.1922 12.4965 87.175 12.5139C87.1576 12.5316 87.1364 12.5449 87.1129 12.5529C87.0895 12.5609 87.0645 12.5633 87.04 12.5599H86.65C86.6012 12.5627 86.5532 12.5467 86.5159 12.515C86.4787 12.4833 86.4551 12.4385 86.45 12.3899V12.0899C86.237 12.2739 85.993 12.4199 85.73 12.5199C85.4759 12.6233 85.2044 12.6776 84.93 12.6799ZM85.15 11.9999C85.362 11.9969 85.572 11.9559 85.77 11.8799C85.994 11.8019 86.204 11.6869 86.39 11.5399V10.6199C86.0619 10.5457 85.7264 10.5088 85.39 10.5099C84.723 10.5099 84.39 10.7699 84.39 11.2899C84.3833 11.3866 84.3967 11.4836 84.4294 11.5749C84.4621 11.6661 84.5134 11.7495 84.58 11.8199C84.6582 11.8864 84.7489 11.9366 84.8468 11.9675C84.9447 11.9984 85.0478 12.0094 85.15 11.9999ZM90 12.6199C89.8261 12.645 89.6487 12.6293 89.4819 12.5738C89.3152 12.5184 89.1636 12.4248 89.0394 12.3006C88.9151 12.1763 88.8215 12.0248 88.7661 11.858C88.7106 11.6912 88.6949 11.5138 88.72 11.3399V8.69991H88.08C88.0556 8.70321 88.0307 8.70083 88.0074 8.69295C87.9841 8.68507 87.9628 8.67191 87.9454 8.65449C87.928 8.63707 87.9148 8.61586 87.907 8.59251C87.8991 8.56917 87.8967 8.54432 87.9 8.51991V8.28991C87.8828 8.24828 87.8828 8.20153 87.9 8.15991C87.9425 8.12297 87.9944 8.09871 88.05 8.08991L88.74 7.99991L88.86 6.88991C88.8574 6.85229 88.8674 6.81488 88.8884 6.78356C88.9094 6.75224 88.9402 6.7288 88.976 6.71691C88.9999 6.70914 89.0251 6.70675 89.05 6.70991H89.42C89.4444 6.7066 89.4693 6.70899 89.4926 6.71686C89.516 6.72474 89.5372 6.7379 89.5546 6.75533C89.572 6.77275 89.5852 6.79396 89.593 6.8173C89.6009 6.84064 89.6033 6.86549 89.6 6.88991V7.99991H90.77C90.7948 7.99691 90.82 7.99942 90.8437 8.00727C90.8674 8.01511 90.8891 8.02808 90.9073 8.04527C90.9254 8.06246 90.9396 8.08343 90.9487 8.1067C90.9578 8.12998 90.9617 8.15497 90.96 8.17991V8.51991C90.9626 8.55752 90.9526 8.59493 90.9316 8.62625C90.9106 8.65757 90.8798 8.68102 90.844 8.69291C90.8202 8.70067 90.7949 8.70306 90.77 8.69991H89.6V11.2999C89.5915 11.3843 89.6004 11.4696 89.6262 11.5505C89.652 11.6313 89.6942 11.706 89.75 11.7699C89.8991 11.8726 90.0799 11.9187 90.26 11.8999C90.4 11.9129 90.54 11.9129 90.68 11.8999H90.96C90.9811 11.9296 90.9948 11.9639 91 11.9999V12.2399C91.013 12.2992 91.013 12.3606 91 12.4199C90.9614 12.4657 90.9086 12.4974 90.85 12.5099C90.574 12.5899 90.287 12.6259 90 12.6199Z" fill="white"/>
</g>
</svg>
