<svg width="135" height="40" viewBox="0 0 135 40" fill="none" xmlns="http://www.w3.org/2000/svg">
<mask id="mask0_0_55" style="mask-type:luminance" maskUnits="userSpaceOnUse" x="0" y="0" width="135" height="40">
<path d="M0 0H135V40H0V0Z" fill="white"/>
</mask>
<g mask="url(#mask0_0_55)">
<path d="M130.197 40H4.729C3.47499 39.9971 2.27324 39.4974 1.38689 38.6103C0.500547 37.7232 0.00184854 36.521 0 35.267L0 4.726C0.00185325 3.47264 0.500776 2.27118 1.38732 1.3852C2.27386 0.499218 3.47564 0.00105789 4.729 0L130.197 0C132.803 0 135 2.12 135 4.726V35.267C135 37.872 132.803 40 130.197 40Z" fill="#A6A6A6"/>
<path d="M134.032 35.2679C134.033 36.0261 133.808 36.7674 133.387 37.3978C132.965 38.0281 132.366 38.5189 131.665 38.8079C131.2 39 130.701 39.0986 130.198 39.0979H4.72901C3.71208 39.099 2.73636 38.6961 2.01644 37.9778C1.29652 37.2596 0.89134 36.2848 0.890015 35.2679V4.72489C0.891339 3.7075 1.29636 2.73222 2.01614 2.01319C2.73592 1.29416 3.71162 0.890157 4.72901 0.889893H130.197C130.955 0.889412 131.697 1.1141 132.327 1.53549C132.958 1.95688 133.449 2.55599 133.739 3.25689C133.932 3.72289 134.031 4.22089 134.031 4.72489L134.032 35.2679Z" fill="black"/>
<path d="M30.128 19.784C30.099 16.561 32.767 14.993 32.889 14.92C31.378 12.717 29.036 12.416 28.213 12.392C26.246 12.185 24.338 13.569 23.336 13.569C22.314 13.569 20.771 12.412 19.108 12.446C16.968 12.479 14.966 13.718 13.868 15.642C11.602 19.565 13.292 25.33 15.463 28.501C16.549 30.054 17.818 31.788 19.479 31.727C21.104 31.66 21.711 30.691 23.672 30.691C25.615 30.691 26.185 31.727 27.879 31.688C29.623 31.66 30.721 30.128 31.769 28.561C33.024 26.781 33.528 25.028 33.548 24.938C33.507 24.924 30.161 23.647 30.128 19.784ZM26.928 10.306C27.802 9.21304 28.4 7.72604 28.234 6.21704C26.969 6.27304 25.387 7.09204 24.476 8.16104C23.67 9.10304 22.95 10.647 23.136 12.099C24.557 12.205 26.016 11.382 26.928 10.306ZM53.645 31.504H51.374L50.13 27.595H45.806L44.621 31.504H42.41L46.694 18.196H49.34L53.645 31.504ZM49.755 25.955L48.63 22.48C48.511 22.125 48.288 21.289 47.959 19.973H47.919C47.719 20.811 47.509 21.647 47.287 22.48L46.182 25.955H49.755ZM64.662 26.588C64.662 28.22 64.221 29.51 63.339 30.457C62.549 31.3 61.568 31.721 60.397 31.721C59.133 31.721 58.225 31.267 57.672 30.359H57.632V35.414H55.5V25.067C55.5 24.041 55.473 22.988 55.421 21.908H57.296L57.415 23.429H57.455C58.166 22.283 59.245 21.711 60.693 21.711C61.825 21.711 62.77 22.158 63.526 23.053C64.284 23.949 64.662 25.127 64.662 26.588ZM62.49 26.666C62.49 25.732 62.28 24.962 61.858 24.356C61.397 23.724 60.778 23.408 60.002 23.408C59.476 23.408 58.998 23.584 58.571 23.931C58.143 24.281 57.863 24.738 57.732 25.304C57.666 25.568 57.633 25.784 57.633 25.954V27.554C57.633 28.252 57.847 28.841 58.275 29.322C58.703 29.803 59.259 30.043 59.943 30.043C60.746 30.043 61.371 29.733 61.818 29.115C62.266 28.496 62.49 27.68 62.49 26.666ZM75.699 26.588C75.699 28.22 75.258 29.51 74.375 30.457C73.586 31.3 72.605 31.721 71.434 31.721C70.17 31.721 69.262 31.267 68.71 30.359H68.67V35.414H66.538V25.067C66.538 24.041 66.511 22.988 66.459 21.908H68.334L68.453 23.429H68.493C69.203 22.283 70.282 21.711 71.731 21.711C72.862 21.711 73.807 22.158 74.565 23.053C75.32 23.949 75.699 25.127 75.699 26.588ZM73.527 26.666C73.527 25.732 73.316 24.962 72.894 24.356C72.433 23.724 71.816 23.408 71.039 23.408C70.5149 23.4079 70.0076 23.5931 69.607 23.931C69.179 24.281 68.9 24.738 68.769 25.304C68.704 25.568 68.67 25.784 68.67 25.954V27.554C68.67 28.252 68.884 28.841 69.31 29.322C69.738 29.802 70.294 30.043 70.98 30.043C71.783 30.043 72.408 29.733 72.855 29.115C73.303 28.496 73.527 27.68 73.527 26.666ZM88.039 27.772C88.039 28.904 87.646 29.825 86.857 30.536C85.99 31.313 84.783 31.701 83.232 31.701C81.8 31.701 80.652 31.425 79.783 30.872L80.277 29.095C81.213 29.661 82.24 29.945 83.359 29.945C84.162 29.945 84.787 29.763 85.236 29.401C85.683 29.039 85.906 28.553 85.906 27.947C85.906 27.407 85.722 26.952 85.353 26.583C84.986 26.214 84.373 25.871 83.517 25.554C81.187 24.685 80.023 23.412 80.023 21.738C80.023 20.644 80.431 19.747 81.248 19.049C82.062 18.35 83.148 18.001 84.506 18.001C85.717 18.001 86.723 18.212 87.526 18.633L86.993 20.371C86.243 19.963 85.395 19.759 84.446 19.759C83.696 19.759 83.11 19.944 82.69 20.312C82.5197 20.4627 82.3839 20.6484 82.2919 20.8563C82.1999 21.0643 82.1539 21.2897 82.157 21.517C82.157 22.043 82.36 22.478 82.768 22.82C83.123 23.136 83.768 23.478 84.704 23.847C85.849 24.308 86.69 24.847 87.231 25.465C87.77 26.081 88.039 26.852 88.039 27.772ZM95.088 23.508H92.738V28.167C92.738 29.352 93.152 29.944 93.982 29.944C94.363 29.944 94.679 29.911 94.929 29.845L94.988 31.464C94.568 31.621 94.015 31.7 93.33 31.7C92.488 31.7 91.83 31.443 91.355 30.93C90.882 30.416 90.644 29.554 90.644 28.343V23.506H89.244V21.906H90.644V20.149L92.738 19.517V21.906H95.088V23.508ZM105.691 26.627C105.691 28.102 105.269 29.313 104.427 30.26C103.544 31.235 102.372 31.721 100.911 31.721C99.503 31.721 98.382 31.254 97.546 30.32C96.71 29.386 96.292 28.207 96.292 26.786C96.292 25.299 96.722 24.081 97.585 23.134C98.446 22.186 99.608 21.712 101.069 21.712C102.477 21.712 103.61 22.179 104.465 23.114C105.283 24.021 105.691 25.192 105.691 26.627ZM103.479 26.696C103.479 25.811 103.29 25.052 102.907 24.419C102.46 23.653 101.821 23.271 100.993 23.271C100.136 23.271 99.485 23.654 99.038 24.419C98.655 25.053 98.466 25.824 98.466 26.736C98.466 27.621 98.655 28.38 99.038 29.012C99.499 29.778 100.143 30.16 100.974 30.16C101.788 30.16 102.427 29.77 102.888 28.992C103.281 28.347 103.479 27.58 103.479 26.696ZM112.621 23.783C112.399 23.743 112.174 23.7232 111.949 23.724C111.199 23.724 110.619 24.007 110.211 24.574C109.856 25.074 109.678 25.706 109.678 26.469V31.504H107.547L107.567 24.93C107.567 23.824 107.54 22.817 107.487 21.909H109.344L109.422 23.745H109.481C109.706 23.114 110.061 22.606 110.547 22.225C110.992 21.8921 111.532 21.7118 112.088 21.711C112.285 21.711 112.463 21.725 112.621 21.75V23.783ZM122.156 26.252C122.161 26.576 122.135 26.9 122.078 27.219H115.682C115.707 28.167 116.016 28.892 116.61 29.392C117.149 29.839 117.846 30.063 118.702 30.063C119.649 30.063 120.513 29.912 121.29 29.609L121.624 31.089C120.716 31.485 119.644 31.682 118.407 31.682C116.919 31.682 115.751 31.244 114.901 30.369C114.053 29.494 113.628 28.319 113.628 26.845C113.628 25.398 114.023 24.193 114.814 23.232C115.642 22.206 116.761 21.693 118.169 21.693C119.552 21.693 120.599 22.206 121.31 23.232C121.873 24.047 122.156 25.055 122.156 26.252ZM120.123 25.699C120.137 25.067 119.998 24.521 119.709 24.06C119.34 23.467 118.773 23.171 118.01 23.171C117.313 23.171 116.746 23.46 116.313 24.04C115.958 24.501 115.747 25.054 115.682 25.698L120.123 25.699ZM49.05 10.009C49.05 11.186 48.697 12.072 47.992 12.667C47.339 13.216 46.411 13.491 45.209 13.491C44.613 13.491 44.103 13.465 43.676 13.413V6.98204C44.233 6.89204 44.833 6.84604 45.481 6.84604C46.626 6.84604 47.489 7.09504 48.071 7.59304C48.723 8.15604 49.05 8.96104 49.05 10.009ZM47.945 10.038C47.945 9.27504 47.743 8.69004 47.339 8.28204C46.935 7.87504 46.345 7.67104 45.568 7.67104C45.238 7.67104 44.957 7.69304 44.724 7.73904V12.628C44.853 12.648 45.089 12.657 45.432 12.657C46.234 12.657 46.853 12.434 47.289 11.988C47.725 11.542 47.945 10.892 47.945 10.038ZM54.909 11.037C54.909 11.762 54.702 12.356 54.288 12.822C53.854 13.301 53.279 13.54 52.561 13.54C51.869 13.54 51.318 13.311 50.907 12.851C50.497 12.392 50.292 11.813 50.292 11.115C50.292 10.385 50.503 9.78604 50.927 9.32104C51.351 8.85604 51.921 8.62304 52.639 8.62304C53.331 8.62304 53.887 8.85204 54.308 9.31104C54.708 9.75704 54.909 10.333 54.909 11.037ZM53.822 11.071C53.822 10.636 53.728 10.263 53.541 9.95204C53.321 9.57604 53.008 9.38804 52.601 9.38804C52.18 9.38804 51.86 9.57604 51.64 9.95204C51.452 10.263 51.359 10.642 51.359 11.09C51.359 11.525 51.453 11.898 51.64 12.209C51.867 12.585 52.183 12.773 52.591 12.773C52.991 12.773 53.305 12.582 53.531 12.199C53.725 11.882 53.822 11.506 53.822 11.071ZM62.765 8.71904L61.29 13.433H60.33L59.719 11.386C59.567 10.886 59.44 10.376 59.34 9.86304H59.321C59.2306 10.379 59.104 10.8879 58.942 11.386L58.293 13.433H57.322L55.935 8.71904H57.012L57.545 10.96C57.674 11.49 57.78 11.995 57.865 12.473H57.884C57.962 12.079 58.091 11.577 58.273 10.97L58.942 8.72004H59.796L60.437 10.922C60.592 11.459 60.718 11.976 60.815 12.474H60.844C60.915 11.989 61.022 11.472 61.164 10.922L61.736 8.72004H62.765V8.71904ZM68.198 13.433H67.15V10.733C67.15 9.90104 66.834 9.48504 66.2 9.48504C66.056 9.48081 65.913 9.50952 65.7818 9.56896C65.6506 9.6284 65.5347 9.71701 65.443 9.82804C65.251 10.0531 65.1476 10.3403 65.152 10.636V13.432H64.104V10.066C64.104 9.65204 64.091 9.20304 64.066 8.71704H64.987L65.036 9.45404H65.065C65.187 9.22504 65.369 9.03604 65.608 8.88504C65.892 8.70904 66.21 8.62004 66.558 8.62004C66.998 8.62004 67.364 8.76204 67.655 9.04704C68.017 9.39604 68.198 9.91704 68.198 10.609V13.433ZM71.088 13.433H70.041V6.55604H71.088V13.433ZM77.258 11.037C77.258 11.762 77.051 12.356 76.637 12.822C76.203 13.301 75.627 13.54 74.91 13.54C74.217 13.54 73.666 13.311 73.256 12.851C72.846 12.392 72.641 11.813 72.641 11.115C72.641 10.385 72.852 9.78604 73.276 9.32104C73.7 8.85604 74.27 8.62304 74.987 8.62304C75.68 8.62304 76.235 8.85204 76.657 9.31104C77.057 9.75704 77.258 10.333 77.258 11.037ZM76.17 11.071C76.17 10.636 76.076 10.263 75.889 9.95204C75.67 9.57604 75.356 9.38804 74.95 9.38804C74.528 9.38804 74.208 9.57604 73.989 9.95204C73.801 10.263 73.708 10.642 73.708 11.09C73.708 11.525 73.802 11.898 73.989 12.209C74.216 12.585 74.532 12.773 74.94 12.773C75.34 12.773 75.653 12.582 75.879 12.199C76.074 11.882 76.17 11.506 76.17 11.071ZM82.33 13.433H81.389L81.311 12.89H81.282C80.96 13.323 80.501 13.54 79.905 13.54C79.46 13.54 79.1 13.397 78.829 13.113C78.7073 12.9852 78.6121 12.8346 78.5487 12.6699C78.4854 12.5051 78.4553 12.3295 78.46 12.153C78.46 11.577 78.7 11.138 79.183 10.834C79.665 10.53 80.343 10.381 81.216 10.388V10.3C81.216 9.67904 80.89 9.36904 80.237 9.36904C79.772 9.36904 79.362 9.48604 79.008 9.71804L78.795 9.03004C79.233 8.75904 79.774 8.62304 80.412 8.62304C81.644 8.62304 82.262 9.27304 82.262 10.573V12.309C82.262 12.78 82.285 13.155 82.33 13.433ZM81.242 11.813V11.086C80.086 11.066 79.508 11.383 79.508 12.036C79.508 12.282 79.574 12.466 79.709 12.589C79.849 12.714 80.033 12.779 80.221 12.773C80.451 12.773 80.666 12.7 80.862 12.555C80.9809 12.4716 81.0777 12.3604 81.1439 12.2311C81.2101 12.1018 81.2438 11.9583 81.242 11.813ZM88.285 13.433H87.355L87.306 12.676H87.277C86.98 13.252 86.474 13.54 85.763 13.54C85.195 13.54 84.722 13.317 84.347 12.871C83.972 12.425 83.785 11.846 83.785 11.135C83.785 10.372 83.988 9.75404 84.396 9.28204C84.791 8.84204 85.275 8.62204 85.851 8.62204C86.484 8.62204 86.927 8.83504 87.179 9.26204H87.199V6.55604H88.248V12.163C88.248 12.622 88.26 13.045 88.285 13.433ZM87.199 11.445V10.659C87.2089 10.4777 87.1773 10.2966 87.1066 10.1294C87.0359 9.96213 86.928 9.81324 86.791 9.69404C86.5977 9.52372 86.3476 9.43202 86.09 9.43704C85.699 9.43704 85.393 9.59204 85.168 9.90304C84.945 10.214 84.832 10.611 84.832 11.096C84.832 11.562 84.939 11.94 85.154 12.231C85.381 12.541 85.687 12.696 86.07 12.696C86.414 12.696 86.689 12.567 86.898 12.308C87.1 12.069 87.199 11.781 87.199 11.445ZM97.248 11.037C97.248 11.762 97.041 12.356 96.627 12.822C96.193 13.301 95.619 13.54 94.9 13.54C94.209 13.54 93.658 13.311 93.246 12.851C92.836 12.392 92.631 11.813 92.631 11.115C92.631 10.385 92.842 9.78604 93.266 9.32104C93.69 8.85604 94.26 8.62304 94.979 8.62304C95.67 8.62304 96.227 8.85204 96.647 9.31104C97.047 9.75704 97.248 10.333 97.248 11.037ZM96.162 11.071C96.162 10.636 96.068 10.263 95.881 9.95204C95.66 9.57604 95.348 9.38804 94.94 9.38804C94.52 9.38804 94.2 9.57604 93.979 9.95204C93.791 10.263 93.698 10.642 93.698 11.09C93.698 11.525 93.792 11.898 93.979 12.209C94.206 12.585 94.522 12.773 94.93 12.773C95.33 12.773 95.645 12.582 95.871 12.199C96.064 11.882 96.162 11.506 96.162 11.071ZM102.883 13.433H101.836V10.733C101.836 9.90104 101.52 9.48504 100.885 9.48504C100.741 9.48067 100.598 9.50931 100.467 9.56877C100.336 9.62823 100.22 9.71692 100.129 9.82804C99.9366 10.0528 99.8331 10.3402 99.838 10.636V13.432H98.789V10.066C98.789 9.65204 98.777 9.20304 98.752 8.71704H99.672L99.721 9.45404H99.75C99.878 9.22004 100.066 9.02404 100.293 8.88504C100.578 8.70904 100.895 8.62004 101.244 8.62004C101.683 8.62004 102.049 8.76204 102.34 9.04704C102.703 9.39604 102.883 9.91704 102.883 10.609V13.433ZM109.936 9.50404H108.782V11.794C108.782 12.376 108.987 12.667 109.393 12.667C109.581 12.667 109.737 12.651 109.86 12.618L109.887 13.413C109.68 13.491 109.408 13.53 109.073 13.53C108.659 13.53 108.337 13.404 108.104 13.152C107.87 12.9 107.754 12.476 107.754 11.881V9.50404H107.065V8.71904H107.754V7.85504L108.781 7.54504V8.71804H109.935L109.936 9.50404ZM115.484 13.433H114.435V10.753C114.435 9.90804 114.119 9.48504 113.486 9.48504C113 9.48504 112.668 9.73004 112.486 10.22C112.452 10.343 112.435 10.47 112.437 10.597V13.432H111.39V6.55604H112.437V9.39704H112.457C112.787 8.88004 113.26 8.62204 113.873 8.62204C114.307 8.62204 114.666 8.76404 114.951 9.04904C115.306 9.40404 115.484 9.93204 115.484 10.63V13.433ZM121.207 10.853C121.207 11.041 121.193 11.199 121.168 11.328H118.025C118.039 11.794 118.189 12.149 118.48 12.395C118.746 12.615 119.089 12.725 119.509 12.725C119.974 12.725 120.398 12.651 120.78 12.502L120.944 13.23C120.497 13.424 119.971 13.521 119.362 13.521C118.632 13.521 118.057 13.306 117.641 12.876C117.223 12.446 117.016 11.869 117.016 11.145C117.016 10.434 117.209 9.84204 117.598 9.37004C118.004 8.86604 118.553 8.61404 119.246 8.61404C119.924 8.61404 120.439 8.86604 120.787 9.37004C121.068 9.77004 121.207 10.265 121.207 10.853ZM120.207 10.582C120.222 10.2994 120.151 10.0188 120.004 9.77704C119.822 9.48604 119.545 9.34004 119.17 9.34004C119.007 9.33708 118.845 9.3745 118.699 9.44899C118.554 9.52348 118.429 9.63273 118.336 9.76704C118.158 10.0041 118.05 10.2866 118.025 10.582H120.207Z" fill="white"/>
</g>
</svg>
