<svg width="135" height="40" viewBox="0 0 135 40" fill="none" xmlns="http://www.w3.org/2000/svg">
<path fill-rule="evenodd" clip-rule="evenodd" d="M129.998 40H5.002C3.67679 39.9966 2.4068 39.4688 1.46955 38.5319C0.532289 37.595 0.00395932 36.3252 0 35L0 5C0 2.244 2.245 0 5.002 0H129.998C131.324 0.00211412 132.594 0.529514 133.532 1.46668C134.469 2.40385 134.997 3.67438 135 5V35C135 37.746 132.752 40 129.998 40Z" fill="black"/>
<path fill-rule="evenodd" clip-rule="evenodd" d="M129.998 0.8C132.31 0.8 134.203 2.688 134.203 5V35C134.203 37.312 132.323 39.2 129.998 39.2H5.002C3.88828 39.1979 2.8207 38.7549 2.03271 37.9678C1.24472 37.1808 0.800435 36.1137 0.797 35V5C0.797 2.688 2.677 0.8 5.002 0.8H129.998ZM129.998 0H5.002C3.67679 0.00342934 2.4068 0.531251 1.46955 1.46813C0.532289 2.40502 0.00395932 3.67479 0 5L0 35C0 37.756 2.245 40 5.002 40H129.998C131.324 39.9979 132.594 39.4705 133.532 38.5333C134.469 37.5962 134.997 36.3256 135 35V5C135 2.254 132.752 0 129.998 0Z" fill="#A6A6A6"/>
<path d="M71.118 13.2321C70.217 13.2321 69.457 12.9151 68.856 12.2921C68.5596 11.9889 68.3262 11.63 68.1693 11.2361C68.0124 10.8422 67.9352 10.4211 67.942 9.99711C67.942 9.08711 68.25 8.31711 68.856 7.70611C69.454 7.08211 70.214 6.76611 71.116 6.76611C72.007 6.76611 72.767 7.08211 73.378 7.70611C73.984 8.33611 74.292 9.10711 74.292 9.99711C74.282 10.9101 73.974 11.6811 73.378 12.2891C72.78 12.9181 72.02 13.2321 71.118 13.2321ZM44.294 13.2321C43.8722 13.2383 43.4535 13.1593 43.0629 12.9998C42.6723 12.8403 42.318 12.6037 42.021 12.3041C41.401 11.6911 41.085 10.9151 41.085 10.0001C41.085 9.08511 41.401 8.31011 42.021 7.69611C42.635 7.08011 43.4 6.76811 44.294 6.76811C44.731 6.76811 45.156 6.85511 45.563 7.03211C45.963 7.20411 46.288 7.43911 46.529 7.72611L46.589 7.79811L45.916 8.46111L45.846 8.37911C45.466 7.92511 44.956 7.70311 44.284 7.70311C43.683 7.70311 43.159 7.91811 42.727 8.34211C42.292 8.76811 42.071 9.32711 42.071 10.0021C42.071 10.6781 42.292 11.2371 42.727 11.6631C43.159 12.0871 43.683 12.3021 44.284 12.3021C44.924 12.3021 45.464 12.0871 45.884 11.6631C46.132 11.4131 46.286 11.0651 46.34 10.6231H44.182V9.69111H47.267L47.279 9.77511C47.301 9.93311 47.324 10.0951 47.324 10.2451C47.324 11.1051 47.066 11.8001 46.554 12.3151C45.973 12.9231 45.213 13.2321 44.294 13.2321ZM79.96 13.1001H79.009L76.095 8.41911L76.12 9.26211V13.0971H75.169V6.90011H76.254L76.284 6.94811L79.024 11.3571L78.999 10.5171V6.90011H79.959L79.96 13.1001ZM63.97 13.1001H63.007V7.83311H61.336V6.90011H65.64V7.83311H63.968V13.1001H63.97ZM60.551 13.1001H59.59V6.90011H60.551V13.1001ZM55.149 13.1001H54.189V7.83311H52.517V6.90011H56.821V7.83311H55.149V13.1001ZM51.909 13.0901H48.223V6.90011H51.908V7.83311H49.186V9.53311H51.643V10.4561H49.186V12.1571H51.908L51.909 13.0901ZM69.561 11.6501C69.991 12.0821 70.512 12.3001 71.118 12.3001C71.742 12.3001 72.251 12.0871 72.676 11.6501C73.098 11.2271 73.311 10.6701 73.311 10.0001C73.311 9.33011 73.098 8.77011 72.678 8.34911C72.4764 8.14061 72.2343 7.97556 71.9665 7.86412C71.6987 7.75268 71.411 7.69721 71.121 7.70111C70.498 7.70111 69.988 7.91311 69.566 8.34911C69.144 8.77311 68.93 9.32911 68.93 9.99911C68.93 10.6711 69.141 11.2291 69.561 11.6511V11.6501Z" fill="white"/>
<path fill-rule="evenodd" clip-rule="evenodd" d="M67.853 21.756C65.506 21.756 63.603 23.544 63.603 26.01C63.603 28.454 65.518 30.264 67.853 30.264C70.2 30.264 72.102 28.464 72.102 26.01C72.102 23.544 70.2 21.756 67.853 21.756ZM67.853 28.579C66.569 28.579 65.463 27.511 65.463 26C65.463 24.466 66.571 23.422 67.853 23.422C69.137 23.422 70.242 24.466 70.242 26C70.244 27.521 69.138 28.579 67.853 28.579ZM58.582 21.756C56.235 21.756 54.332 23.544 54.332 26.01C54.332 28.454 56.247 30.264 58.582 30.264C60.928 30.264 62.831 28.464 62.831 26.01C62.831 23.544 60.927 21.756 58.582 21.756ZM58.582 28.579C57.297 28.579 56.192 27.511 56.192 26C56.192 24.466 57.3 23.422 58.582 23.422C59.865 23.422 60.971 24.466 60.971 26C60.971 27.521 59.867 28.579 58.582 28.579ZM47.55 23.055V24.855H51.854C51.722 25.865 51.389 26.611 50.88 27.122C50.25 27.756 49.276 28.444 47.56 28.444C44.915 28.444 42.846 26.299 42.846 23.644C42.846 20.988 44.915 18.843 47.56 18.843C48.988 18.843 50.028 19.409 50.8 20.133L52.072 18.855C50.999 17.823 49.572 17.032 47.569 17.032C43.941 17.032 40.896 20 40.896 23.634C40.896 27.277 43.939 30.234 47.569 30.234C49.529 30.234 50.999 29.591 52.162 28.379C53.346 27.189 53.722 25.511 53.722 24.157C53.722 23.736 53.689 23.357 53.622 23.035H47.547C47.55 23.032 47.55 23.055 47.55 23.055ZM92.673 24.456C92.318 23.501 91.245 21.746 89.045 21.746C86.865 21.746 85.051 23.469 85.051 26C85.051 28.39 86.844 30.254 89.256 30.254C91.193 30.254 92.32 29.064 92.785 28.367L91.347 27.399C90.87 28.109 90.207 28.576 89.266 28.576C88.314 28.576 87.649 28.142 87.206 27.286L92.872 24.93C92.872 24.933 92.673 24.456 92.673 24.456ZM86.896 25.878C86.852 24.235 88.168 23.399 89.109 23.399C89.852 23.399 90.47 23.766 90.681 24.299L86.896 25.878ZM82.294 30H84.154V17.501H82.294V30ZM79.24 22.7H79.173C78.753 22.2 77.956 21.746 76.937 21.746C74.824 21.746 72.877 23.613 72.877 26.013C72.877 28.401 74.814 30.247 76.937 30.247C77.943 30.247 78.753 29.791 79.173 29.279H79.24V29.89C79.24 31.514 78.375 32.39 76.982 32.39C75.842 32.39 75.134 31.566 74.846 30.878L73.229 31.556C73.694 32.678 74.933 34.067 76.979 34.067C79.16 34.067 81.008 32.778 81.008 29.634V22H79.25V22.7H79.24ZM77.104 28.579C75.82 28.579 74.747 27.501 74.747 26.012C74.747 24.512 75.82 23.424 77.104 23.424C78.375 23.424 79.361 24.524 79.361 26.012C79.374 27.502 78.378 28.579 77.104 28.579ZM101.383 17.5H96.935V30H98.795V25.266H101.385C103.444 25.266 105.468 23.767 105.468 21.388C105.468 19.009 103.452 17.5 101.383 17.5ZM101.437 23.52H98.793V19.231H101.437C102.831 19.231 103.618 20.386 103.618 21.376C103.618 22.356 102.821 23.52 101.437 23.52ZM112.924 21.732C111.573 21.732 110.18 22.333 109.603 23.642L111.252 24.331C111.608 23.642 112.258 23.408 112.946 23.408C113.91 23.408 114.883 23.987 114.906 25.019V25.151C114.573 24.961 113.843 24.672 112.969 24.672C111.188 24.672 109.382 25.65 109.382 27.482C109.382 29.162 110.843 30.238 112.469 30.238C113.719 30.238 114.406 29.672 114.836 29.016H114.903V29.984H116.696V25.196C116.696 22.966 115.047 21.732 112.924 21.732ZM112.69 28.578C112.082 28.578 111.23 28.278 111.23 27.51C111.23 26.543 112.293 26.176 113.199 26.176C114.019 26.176 114.407 26.353 114.893 26.598C114.829 27.1394 114.57 27.6389 114.165 28.0033C113.759 28.3677 113.235 28.572 112.69 28.578ZM123.238 22L121.102 27.422H121.035L118.822 22H116.82L120.141 29.579L118.249 33.791H120.186L125.294 22H123.238ZM106.494 30H108.354V17.501H106.494V30Z" fill="white"/>
<path fill-rule="evenodd" clip-rule="evenodd" d="M10.391 7.53406C10.103 7.84506 9.93701 8.32206 9.93701 8.94506V31.0571C9.93701 31.6811 10.103 32.1571 10.401 32.4571L10.478 32.5241L22.816 20.1341V19.8581L10.468 7.46606L10.391 7.53406Z" fill="url(#paint0_linear_0_43)"/>
<path fill-rule="evenodd" clip-rule="evenodd" d="M26.922 24.2769L22.806 20.1449V19.8549L26.922 15.7229L27.011 15.7779L31.879 18.5559C33.272 19.3439 33.272 20.6459 31.879 21.4439L27.011 24.2219L26.921 24.2769H26.922Z" fill="url(#paint1_linear_0_43)"/>
<path fill-rule="evenodd" clip-rule="evenodd" d="M27.01 24.222L22.807 20L10.391 32.466C10.845 32.956 11.608 33.01 12.46 32.534L27.01 24.222Z" fill="url(#paint2_linear_0_43)"/>
<path fill-rule="evenodd" clip-rule="evenodd" d="M27.01 15.7781L12.46 7.47806C11.608 6.99006 10.843 7.05806 10.391 7.54606L22.806 20.0001L27.01 15.7781Z" fill="url(#paint3_linear_0_43)"/>
<path opacity="0.2" fill-rule="evenodd" clip-rule="evenodd" d="M26.922 24.1321L12.47 32.3771C11.663 32.8431 10.943 32.8101 10.478 32.3871L10.401 32.4641L10.478 32.5311C10.943 32.9531 11.663 32.9871 12.47 32.5211L27.02 24.2211L26.922 24.1321Z" fill="black"/>
<path opacity="0.12" fill-rule="evenodd" clip-rule="evenodd" d="M31.879 21.3L26.909 24.132L26.999 24.222L31.866 21.444C32.564 21.044 32.906 20.521 32.906 20C32.865 20.479 32.51 20.933 31.879 21.3Z" fill="black"/>
<path opacity="0.25" fill-rule="evenodd" clip-rule="evenodd" d="M12.46 7.62288L31.879 18.7009C32.509 19.0569 32.865 19.5239 32.919 19.9999C32.919 19.4789 32.577 18.9549 31.879 18.5559L12.459 7.47988C11.067 6.67988 9.93701 7.34788 9.93701 8.94588V9.09088C9.93701 7.48988 11.067 6.83288 12.46 7.62288Z" fill="white"/>
<defs>
<linearGradient id="paint0_linear_0_43" x1="21.71" y1="8.70706" x2="1.93501" y2="13.9541" gradientUnits="userSpaceOnUse">
<stop stop-color="#00A0FF"/>
<stop offset="0.007" stop-color="#00A1FF"/>
<stop offset="0.26" stop-color="#00BEFF"/>
<stop offset="0.512" stop-color="#00D2FF"/>
<stop offset="0.76" stop-color="#00DFFF"/>
<stop offset="1" stop-color="#00E3FF"/>
</linearGradient>
<linearGradient id="paint1_linear_0_43" x1="33.695" y1="19.9999" x2="9.598" y2="19.9999" gradientUnits="userSpaceOnUse">
<stop stop-color="#FFE000"/>
<stop offset="0.409" stop-color="#FFBD00"/>
<stop offset="0.775" stop-color="#FFA500"/>
<stop offset="1" stop-color="#FF9C00"/>
</linearGradient>
<linearGradient id="paint2_linear_0_43" x1="24.724" y1="22.297" x2="8.76199" y2="49.054" gradientUnits="userSpaceOnUse">
<stop stop-color="#FF3A44"/>
<stop offset="1" stop-color="#C31162"/>
</linearGradient>
<linearGradient id="paint3_linear_0_43" x1="7.26499" y1="0.179058" x2="14.386" y2="12.1291" gradientUnits="userSpaceOnUse">
<stop stop-color="#32A071"/>
<stop offset="0.069" stop-color="#2DA771"/>
<stop offset="0.476" stop-color="#15CF74"/>
<stop offset="0.801" stop-color="#06E775"/>
<stop offset="1" stop-color="#00F076"/>
</linearGradient>
</defs>
</svg>
