<svg width="139" height="42" viewBox="0 0 139 42" fill="none" xmlns="http://www.w3.org/2000/svg">
<path d="M132.546 1H6.54602C3.7846 1 1.54602 3.23858 1.54602 6V36C1.54602 38.7614 3.7846 41 6.54602 41H132.546C135.307 41 137.546 38.7614 137.546 36V6C137.546 3.23858 135.307 1 132.546 1Z" fill="black" stroke="white"/>
<path d="M27.053 34.9011H20.683L15.623 27.9921H13.92V34.8901H8.30603V14.1631H16.343C20.979 14.1631 24.765 17.2691 24.765 21.0891C24.765 23.4211 23.315 25.5041 21.112 26.7761L27.052 34.9041M19.159 21.0861C19.1604 20.6294 19.0708 20.1771 18.8955 19.7554C18.7202 19.3337 18.4627 18.9512 18.138 18.6301C17.4759 17.9757 16.583 17.6079 15.652 17.6061H13.92V24.5381H15.656C17.588 24.5301 19.152 22.9881 19.158 21.0861H19.159Z" fill="white"/>
<path d="M41.412 26.8881C41.4197 28.5455 40.9355 30.168 40.0207 31.5501C39.1059 32.9322 37.8016 34.0119 36.2728 34.6524C34.7441 35.2929 33.0598 35.4654 31.4329 35.1482C29.8061 34.8309 28.31 34.0382 27.1339 32.8702C25.9579 31.7023 25.1548 30.2117 24.8263 28.5871C24.4978 26.9626 24.6586 25.277 25.2885 23.7439C25.9184 22.2108 26.989 20.899 28.3647 19.9746C29.7405 19.0503 31.3595 18.5548 33.017 18.5511C34.1161 18.5458 35.2053 18.7574 36.2225 19.1738C37.2396 19.5902 38.1645 20.2032 38.9444 20.9776C39.7242 21.7521 40.3436 22.6728 40.767 23.687C41.1905 24.7012 41.4097 25.789 41.412 26.8881ZM33.017 22.5061C31.572 22.5061 30.351 24.4691 30.351 26.8881C30.351 29.3081 31.571 31.268 33.017 31.268C34.489 31.268 35.715 29.309 35.715 26.8881C35.715 24.4681 34.494 22.5061 33.017 22.5061ZM54.492 18.966L48.132 25.251V18.949H42.609V34.9641H48.132V28.466L54.774 34.9641H61.718L53.282 26.626L60.272 19.7241V29.236C60.272 32.394 62.19 35.3031 67.028 35.3031C69.328 35.3031 71.43 34.015 72.453 32.8531L74.938 34.967H76.114V18.967H70.606V29.3291C69.984 30.4011 69.116 31.077 67.779 31.077C66.419 31.077 65.796 30.279 65.796 27.737V18.967L54.492 18.966ZM78.308 20.545C78.0435 20.545 77.7897 20.44 77.6027 20.2529C77.4156 20.0658 77.3105 19.8121 77.3105 19.5476C77.3105 19.283 77.4156 19.0293 77.6027 18.8422C77.7897 18.6551 78.0435 18.55 78.308 18.55C78.5726 18.55 78.8263 18.6551 79.0133 18.8422C79.2004 19.0293 79.3055 19.283 79.3055 19.5476C79.3055 19.8121 79.2004 20.0658 79.0133 20.2529C78.8263 20.44 78.5726 20.545 78.308 20.545ZM78.308 18.649C78.1875 18.645 78.0674 18.6653 77.9549 18.7086C77.8424 18.752 77.7397 18.8175 77.653 18.9013C77.5664 18.9852 77.4974 19.0856 77.4504 19.1966C77.4033 19.3076 77.379 19.427 77.379 19.5476C77.379 19.6681 77.4033 19.7875 77.4504 19.8985C77.4974 20.0095 77.5664 20.1099 77.653 20.1938C77.7397 20.2776 77.8424 20.3431 77.9549 20.3865C78.0674 20.4298 78.1875 20.4501 78.308 20.446C78.5411 20.4383 78.7621 20.3402 78.9242 20.1726C79.0864 20.0049 79.177 19.7808 79.177 19.5476C79.177 19.3143 79.0864 19.0902 78.9242 18.9226C78.7621 18.7549 78.5411 18.6568 78.308 18.649Z" fill="white"/>
<path d="M78.108 18.9501H78.633C78.6949 18.9463 78.7568 18.955 78.8152 18.9756C78.8736 18.9962 78.9273 19.0283 78.973 19.0701C79.037 19.1401 79.073 19.2331 79.07 19.3281C79.0734 19.4118 79.0472 19.4941 78.996 19.5605C78.9448 19.6268 78.8719 19.6731 78.79 19.6911L79.108 20.1461H78.864L78.574 19.7271H78.314V20.1461H78.108V18.9501ZM78.618 19.5451C78.77 19.5451 78.859 19.4651 78.859 19.3451C78.859 19.2151 78.769 19.1451 78.616 19.1451H78.31V19.5481L78.618 19.5451Z" fill="white"/>
<path d="M11.71 4.59303H12.361L15.214 11.371H14.506L13.768 9.57103H10.178L9.41299 11.371H8.75299L11.71 4.59303ZM12.007 5.28303L10.427 8.99703H13.539L12.006 5.28203L12.007 5.28303ZM15.369 6.94803H16.02L17.495 10.748L18.931 6.94803H19.514L17.772 11.371H17.179L15.369 6.94803ZM23.996 9.51403C23.9968 9.86812 24.0034 10.2222 24.016 10.576C24.022 10.723 24.03 10.86 24.04 10.988C24.05 11.115 24.064 11.243 24.083 11.371H23.547C23.5069 11.1338 23.4874 10.8936 23.489 10.653H23.47C23.3271 10.917 23.1135 11.1359 22.853 11.285C22.607 11.419 22.296 11.485 21.919 11.485C21.728 11.485 21.539 11.462 21.355 11.414C21.1761 11.369 21.0072 11.291 20.857 11.184C20.7082 11.0769 20.5851 10.9378 20.497 10.777C20.4 10.5912 20.3525 10.3835 20.359 10.174C20.359 9.83603 20.445 9.56803 20.618 9.37003C20.7905 9.17205 21.0089 9.01928 21.254 8.92503C21.506 8.82503 21.774 8.76203 22.058 8.73303C22.342 8.70503 22.593 8.69003 22.81 8.69003H23.48V8.42203C23.48 8.03903 23.362 7.76503 23.126 7.59903C22.89 7.43303 22.593 7.35003 22.236 7.35003C21.725 7.35003 21.275 7.51603 20.886 7.84803L20.551 7.45503C20.761 7.25103 21.023 7.09603 21.336 6.99103C21.648 6.88603 21.948 6.83303 22.236 6.83303C22.771 6.83303 23.199 6.95903 23.518 7.21103C23.838 7.46303 23.997 7.87103 23.997 8.43103L23.996 9.51403ZM22.848 9.15003C22.606 9.15003 22.371 9.16603 22.144 9.19803C21.918 9.23003 21.714 9.28403 21.532 9.36003C21.3644 9.42646 21.215 9.53167 21.096 9.66703C20.9852 9.80114 20.9272 9.97115 20.933 10.145C20.933 10.279 20.963 10.399 21.024 10.505C21.085 10.61 21.164 10.695 21.259 10.763C21.355 10.83 21.462 10.881 21.579 10.916C21.698 10.951 21.817 10.969 21.939 10.969C22.245 10.969 22.497 10.924 22.695 10.835C22.893 10.745 23.051 10.629 23.169 10.485C23.287 10.342 23.369 10.179 23.413 9.99703C23.4574 9.81707 23.4799 9.6324 23.48 9.44703V9.15003H22.848ZM25.784 6.94803H26.45V11.371H25.784V6.94803ZM25.617 5.19603C25.617 5.07503 25.665 4.97303 25.761 4.89003C25.8601 4.80578 25.9869 4.76124 26.117 4.76503C26.257 4.76503 26.377 4.80703 26.472 4.89003C26.5177 4.92681 26.5544 4.97344 26.5795 5.02643C26.6046 5.07942 26.6174 5.1374 26.617 5.19603C26.6174 5.25467 26.6046 5.31265 26.5795 5.36564C26.5544 5.41863 26.5177 5.46525 26.472 5.50203C26.3731 5.58606 26.2467 5.63058 26.117 5.62703C25.9869 5.63083 25.8601 5.58629 25.761 5.50203C25.7155 5.46516 25.6789 5.41848 25.654 5.3655C25.6291 5.31252 25.6164 5.25459 25.617 5.19603ZM28.194 4.13403H28.769V11.371H28.194V4.13403ZM33.969 9.51403C33.9694 9.86811 33.9758 10.2222 33.988 10.576C33.994 10.723 34.002 10.86 34.012 10.988C34.022 11.115 34.036 11.243 34.055 11.371H33.519C33.4792 11.1338 33.4601 10.8936 33.462 10.653H33.442C33.2991 10.917 33.0855 11.1359 32.825 11.285C32.579 11.419 32.268 11.485 31.892 11.485C31.7 11.485 31.512 11.462 31.327 11.414C31.1481 11.369 30.9792 11.291 30.829 11.184C30.6805 11.0768 30.5579 10.9377 30.47 10.777C30.3726 10.5913 30.3248 10.3836 30.331 10.174C30.331 9.83603 30.417 9.56803 30.59 9.37003C30.7625 9.17205 30.9809 9.01928 31.226 8.92503C31.478 8.82503 31.746 8.76203 32.03 8.73303C32.314 8.70503 32.565 8.69003 32.782 8.69003H33.452V8.42203C33.452 8.03903 33.334 7.76503 33.098 7.59903C32.862 7.43303 32.565 7.35003 32.208 7.35003C31.697 7.35003 31.247 7.51603 30.858 7.84803L30.523 7.45503C30.733 7.25103 30.995 7.09603 31.308 6.99103C31.62 6.88603 31.92 6.83303 32.208 6.83303C32.744 6.83303 33.171 6.95903 33.49 7.21103C33.81 7.46303 33.969 7.87103 33.969 8.43103V9.51403ZM32.82 9.15003C32.578 9.15003 32.343 9.16603 32.117 9.19803C31.89 9.23003 31.686 9.28403 31.504 9.36003C31.3364 9.42646 31.187 9.53167 31.068 9.66703C30.9575 9.80129 30.8999 9.97128 30.906 10.145C30.906 10.279 30.936 10.399 30.996 10.505C31.057 10.61 31.136 10.695 31.231 10.763C31.327 10.83 31.434 10.881 31.551 10.916C31.67 10.951 31.789 10.969 31.911 10.969C32.217 10.969 32.469 10.924 32.667 10.835C32.865 10.745 33.023 10.629 33.141 10.485C33.259 10.342 33.341 10.179 33.385 9.99703C33.4294 9.81707 33.4519 9.6324 33.452 9.44703V9.15003H32.82ZM35.512 4.13403H36.087V7.72403H36.106C36.1935 7.57275 36.3068 7.43803 36.441 7.32603C36.575 7.21403 36.721 7.12203 36.876 7.04903C37.0332 6.97525 37.1988 6.92053 37.369 6.88603C37.542 6.85103 37.711 6.83303 37.877 6.83303C38.215 6.83303 38.527 6.89103 38.81 7.00503C39.094 7.12003 39.34 7.28103 39.547 7.48903C39.755 7.69603 39.916 7.94203 40.031 8.22603C40.146 8.51003 40.203 8.82103 40.203 9.15903C40.203 9.49803 40.146 9.80903 40.031 10.093C39.916 10.377 39.755 10.623 39.547 10.83C39.3365 11.0393 39.0858 11.2036 38.81 11.313C38.5131 11.4306 38.1963 11.4893 37.877 11.486C37.711 11.486 37.542 11.468 37.369 11.433C37.1988 11.3985 37.0332 11.3438 36.876 11.27C36.7197 11.1967 36.5735 11.1036 36.441 10.993C36.3068 10.881 36.1935 10.7463 36.106 10.595H36.086V11.371H35.512V4.13403ZM36.029 9.15903C36.0296 9.39689 36.0772 9.63228 36.1692 9.85162C36.2612 10.071 36.3957 10.2699 36.565 10.437C36.731 10.6 36.925 10.729 37.149 10.825C37.373 10.921 37.615 10.969 37.877 10.969C38.145 10.969 38.387 10.921 38.604 10.825C38.8131 10.7359 39.0015 10.6044 39.1573 10.4389C39.313 10.2733 39.4328 10.0772 39.509 9.86303C39.589 9.64303 39.629 9.40803 39.629 9.15903C39.629 8.91003 39.589 8.67603 39.509 8.45603C39.4328 8.24185 39.313 8.04579 39.1573 7.88022C39.0015 7.71464 38.8131 7.58315 38.604 7.49403C38.3744 7.39567 38.1267 7.34661 37.877 7.35003C37.615 7.35003 37.373 7.39803 37.149 7.49403C36.9319 7.58543 36.7338 7.71669 36.565 7.88103C36.3957 8.04814 36.2612 8.2471 36.1692 8.46645C36.0772 8.68579 36.0296 8.92118 36.029 9.15903ZM41.718 4.13403H42.292V11.371H41.718V4.13403ZM47.962 10.538C47.738 10.876 47.462 11.118 47.134 11.265C46.804 11.412 46.443 11.485 46.047 11.485C45.709 11.485 45.402 11.428 45.128 11.313C44.8595 11.2025 44.6172 11.0368 44.4168 10.8266C44.2165 10.6165 44.0625 10.3665 43.965 10.093C43.8565 9.79064 43.803 9.47127 43.807 9.15003C43.807 8.81803 43.861 8.51203 43.97 8.23003C44.0714 7.95946 44.2262 7.71202 44.4251 7.50244C44.624 7.29286 44.8631 7.12541 45.128 7.01003C45.396 6.89203 45.693 6.83303 46.018 6.83303C46.357 6.83303 46.655 6.89303 46.913 7.01003C47.1556 7.11824 47.3738 7.27466 47.5541 7.46977C47.7344 7.66489 47.8732 7.89463 47.962 8.14503C48.051 8.39403 48.096 8.64503 48.096 8.90103V9.30303H44.381C44.381 9.42403 44.405 9.57903 44.453 9.76703C44.5676 10.1929 44.8463 10.5561 45.228 10.777C45.442 10.905 45.718 10.969 46.057 10.969C46.35 10.969 46.634 10.899 46.909 10.758C47.183 10.618 47.394 10.426 47.54 10.184L47.962 10.538ZM47.522 8.78603C47.522 8.58803 47.482 8.40303 47.402 8.23103C47.2409 7.87937 46.9488 7.60452 46.588 7.46503C46.398 7.38811 46.1949 7.34905 45.99 7.35003C45.677 7.35003 45.417 7.41403 45.21 7.54203C44.9887 7.67541 44.7997 7.85612 44.6565 8.07121C44.5134 8.2863 44.4196 8.53041 44.382 8.78603H47.522ZM51.891 9.16003C51.891 8.82103 51.948 8.51003 52.063 8.22603C52.1696 7.94922 52.3328 7.69772 52.5422 7.48763C52.7516 7.27754 53.0025 7.11351 53.279 7.00603C53.566 6.89103 53.879 6.83303 54.217 6.83303C54.555 6.83303 54.867 6.89103 55.151 7.00503C55.435 7.12003 55.681 7.28103 55.888 7.48903C56.095 7.69603 56.256 7.94203 56.371 8.22603C56.486 8.51003 56.543 8.82103 56.543 9.15903C56.543 9.49803 56.486 9.80903 56.371 10.093C56.256 10.377 56.095 10.623 55.888 10.83C55.6775 11.0393 55.4268 11.2036 55.151 11.313C54.8538 11.4307 54.5366 11.4894 54.217 11.486C53.879 11.486 53.567 11.428 53.279 11.313C53.0025 11.2056 52.7516 11.0415 52.5422 10.8314C52.3328 10.6214 52.1696 10.3698 52.063 10.093C51.9457 9.79579 51.8873 9.47957 51.891 9.16003ZM52.465 9.16003C52.465 9.40803 52.505 9.64303 52.585 9.86303C52.6612 10.0772 52.7809 10.2733 52.9367 10.4389C53.0925 10.6044 53.2809 10.7359 53.49 10.825C53.707 10.921 53.95 10.969 54.217 10.969C54.485 10.969 54.727 10.921 54.945 10.825C55.1541 10.7359 55.3425 10.6044 55.4983 10.4389C55.654 10.2733 55.7738 10.0772 55.85 9.86303C55.93 9.64303 55.969 9.40803 55.969 9.15903C55.969 8.91003 55.929 8.67603 55.849 8.45603C55.7729 8.24195 55.6533 8.04594 55.4977 7.88037C55.3421 7.71481 55.1539 7.58326 54.945 7.49403C54.7151 7.39553 54.4671 7.34647 54.217 7.35003C53.949 7.35003 53.707 7.39803 53.49 7.49403C53.2809 7.58315 53.0925 7.71464 52.9367 7.88022C52.7809 8.04579 52.6612 8.24185 52.585 8.45603C52.505 8.67603 52.465 8.91103 52.465 9.16003ZM57.962 8.19203C57.9613 8.09163 57.958 7.99126 57.952 7.89103C57.9457 7.7711 57.941 7.65109 57.938 7.53103C57.9352 7.41796 57.9306 7.30495 57.924 7.19203C57.9184 7.11081 57.915 7.02944 57.914 6.94803H58.489C58.495 7.11403 58.5 7.27303 58.503 7.42703C58.506 7.58003 58.514 7.67903 58.527 7.72303H58.556C58.6852 7.46463 58.884 7.24746 59.13 7.09603C59.398 6.92103 59.711 6.83303 60.068 6.83303C60.413 6.83303 60.694 6.88703 60.911 6.99603C61.128 7.10403 61.299 7.24603 61.423 7.42203C61.547 7.59703 61.633 7.80003 61.681 8.03003C61.729 8.26003 61.753 8.49603 61.753 8.73803V11.371H61.179V8.76703C61.179 8.58803 61.163 8.41403 61.131 8.24503C61.1026 8.08471 61.046 7.93068 60.964 7.79003C60.8828 7.6551 60.7667 7.54456 60.628 7.47003C60.485 7.39003 60.298 7.35003 60.068 7.35003C59.858 7.35003 59.658 7.38703 59.47 7.46003C59.2835 7.53227 59.1164 7.64697 58.982 7.79503C58.845 7.94503 58.736 8.13303 58.656 8.36003C58.576 8.58703 58.536 8.85303 58.536 9.16003V11.37H57.962V8.19303V8.19203Z" fill="white"/>
<path d="M85.76 18.554H88.144C88.578 18.554 88.935 18.613 89.216 18.731C89.496 18.849 89.719 18.999 89.881 19.181C90.044 19.363 90.157 19.567 90.221 19.793C90.285 20.02 90.317 20.238 90.317 20.449C90.317 20.659 90.285 20.879 90.221 21.105C90.157 21.331 90.044 21.535 89.881 21.717C89.6955 21.9146 89.4684 22.0683 89.216 22.167C88.936 22.285 88.578 22.344 88.144 22.344H86.679V25.331H85.76V18.554ZM86.68 21.54H87.885C88.065 21.54 88.241 21.526 88.417 21.497C88.592 21.469 88.749 21.416 88.886 21.339C89.0242 21.2613 89.1384 21.1472 89.216 21.009C89.299 20.865 89.341 20.679 89.341 20.449C89.341 20.219 89.299 20.033 89.216 19.889C89.1384 19.7508 89.0242 19.6366 88.886 19.559C88.7398 19.4793 88.5807 19.4258 88.416 19.401C88.2408 19.3724 88.0635 19.358 87.886 19.358H86.679L86.68 21.54ZM91.58 18.094H92.441V25.331H91.58V18.094ZM94.126 21.349C94.368 21.126 94.648 20.958 94.967 20.846C95.287 20.735 95.606 20.679 95.925 20.679C96.257 20.679 96.542 20.72 96.782 20.803C97.021 20.886 97.217 20.998 97.37 21.138C97.523 21.278 97.637 21.44 97.71 21.622C97.784 21.804 97.82 21.993 97.82 22.192V24.508C97.82 24.668 97.823 24.814 97.83 24.948C97.836 25.082 97.846 25.21 97.859 25.331H97.093C97.073 25.101 97.064 24.871 97.064 24.642H97.044C96.854 24.936 96.627 25.143 96.365 25.264C96.0786 25.3904 95.768 25.4526 95.455 25.446C95.245 25.446 95.045 25.417 94.853 25.36C94.6703 25.3073 94.4994 25.2197 94.35 25.102C94.1984 24.9812 94.0773 24.8263 93.9967 24.6499C93.9161 24.4736 93.8782 24.2807 93.886 24.087C93.886 23.793 93.951 23.547 94.082 23.35C94.212 23.152 94.392 22.99 94.618 22.866C94.845 22.742 95.109 22.652 95.413 22.598C95.716 22.544 96.04 22.517 96.384 22.517H97.016V22.325C97.015 22.1353 96.957 21.9504 96.8494 21.7941C96.7419 21.6379 96.5898 21.5176 96.413 21.449C96.26 21.3918 96.0973 21.3647 95.934 21.369C95.6664 21.3652 95.4013 21.4223 95.159 21.536C95.0606 21.5814 94.9673 21.6374 94.881 21.703C94.798 21.767 94.719 21.828 94.642 21.885L94.126 21.349ZM96.556 23.149C96.352 23.149 96.143 23.159 95.93 23.182C95.7308 23.2013 95.5346 23.245 95.346 23.312C95.17 23.375 95.026 23.465 94.915 23.579C94.8591 23.6374 94.8154 23.7064 94.7865 23.782C94.7577 23.8576 94.7442 23.9382 94.747 24.019C94.747 24.281 94.835 24.469 95.011 24.585C95.186 24.699 95.424 24.757 95.724 24.757C95.96 24.757 96.161 24.717 96.327 24.637C96.4785 24.5675 96.6128 24.4654 96.7203 24.338C96.8279 24.2106 96.9059 24.061 96.949 23.9C96.994 23.744 97.016 23.589 97.016 23.436V23.149H96.556ZM98.824 20.794H99.82L101.17 24.336H101.189L102.472 20.794H103.4L101.246 26.308C101.176 26.4919 101.096 26.6722 101.007 26.848C100.931 27.0018 100.83 27.1425 100.71 27.265C100.591 27.3823 100.45 27.4735 100.294 27.533C100.102 27.6017 99.8996 27.6343 99.696 27.629C99.5663 27.6289 99.4367 27.6208 99.308 27.605C99.178 27.5894 99.0508 27.5557 98.93 27.505L99.035 26.719C99.207 26.789 99.38 26.825 99.552 26.825C99.6676 26.8279 99.7828 26.8099 99.892 26.772C99.982 26.7388 100.064 26.6866 100.132 26.619C100.2 26.5502 100.256 26.4708 100.299 26.384C100.343 26.294 100.388 26.193 100.433 26.078L100.71 25.36L98.824 20.794ZM105.103 23.378C105.103 23.576 105.146 23.757 105.233 23.919C105.319 24.082 105.432 24.221 105.573 24.336C105.713 24.451 105.875 24.54 106.061 24.604C106.246 24.668 106.437 24.699 106.635 24.699C106.903 24.699 107.135 24.637 107.334 24.513C107.541 24.3796 107.726 24.2131 107.879 24.02L108.53 24.518C108.052 25.137 107.382 25.446 106.52 25.446C106.163 25.446 105.839 25.386 105.548 25.264C105.27 25.1513 105.019 24.9807 104.812 24.7637C104.605 24.5466 104.447 24.288 104.347 24.005C104.236 23.703 104.181 23.3836 104.184 23.062C104.184 22.724 104.244 22.41 104.361 22.12C104.479 21.83 104.642 21.577 104.85 21.363C105.057 21.149 105.304 20.982 105.591 20.861C105.879 20.739 106.191 20.679 106.53 20.679C106.932 20.679 107.272 20.749 107.55 20.889C107.827 21.029 108.055 21.213 108.234 21.439C108.412 21.666 108.542 21.922 108.621 22.206C108.701 22.49 108.741 22.778 108.741 23.072V23.378H105.103ZM107.822 22.689C107.818 22.5102 107.788 22.3329 107.732 22.163C107.681 22.0083 107.597 21.8662 107.487 21.746C107.373 21.6247 107.234 21.5301 107.08 21.469C106.898 21.3987 106.705 21.3647 106.51 21.369C106.232 21.367 105.959 21.4473 105.727 21.5998C105.494 21.7523 105.312 21.9702 105.203 22.226C105.137 22.381 105.103 22.536 105.103 22.689H107.822ZM110.071 20.794H110.932V21.492H110.952C111.01 21.3701 111.088 21.2586 111.182 21.162C111.277 21.063 111.384 20.979 111.502 20.909C111.62 20.839 111.749 20.783 111.89 20.741C112.03 20.7 112.17 20.679 112.31 20.679C112.451 20.679 112.579 20.698 112.694 20.736L112.655 21.665C112.586 21.646 112.516 21.63 112.445 21.617C112.375 21.604 112.305 21.597 112.235 21.597C111.813 21.597 111.491 21.716 111.267 21.952C111.044 22.188 110.932 22.555 110.932 23.052V25.332H110.071V20.794ZM116.321 21.933C116.216 21.8034 116.088 21.6949 115.943 21.613C115.774 21.5221 115.585 21.4772 115.393 21.483C115.188 21.483 115.011 21.526 114.861 21.613C114.792 21.6482 114.734 21.7023 114.694 21.769C114.654 21.8357 114.634 21.9123 114.636 21.99C114.636 22.124 114.679 22.233 114.766 22.316C114.851 22.399 114.953 22.466 115.072 22.516C115.19 22.568 115.316 22.606 115.45 22.632C115.584 22.657 115.699 22.68 115.794 22.699C115.979 22.743 116.154 22.798 116.316 22.861C116.479 22.925 116.619 23.008 116.737 23.111C116.855 23.212 116.947 23.337 117.015 23.484C117.082 23.63 117.115 23.809 117.115 24.02C117.122 24.2383 117.071 24.4545 116.969 24.6474C116.866 24.8403 116.716 25.0032 116.531 25.12C116.352 25.2382 116.153 25.323 115.943 25.37C115.723 25.42 115.501 25.446 115.277 25.446C114.939 25.4528 114.603 25.3944 114.287 25.274C114.003 25.159 113.749 24.948 113.526 24.642L114.176 24.106C114.316 24.246 114.473 24.371 114.646 24.479C114.818 24.588 115.028 24.642 115.277 24.642C115.386 24.642 115.496 24.631 115.607 24.608C115.719 24.586 115.818 24.551 115.904 24.503C115.987 24.4583 116.059 24.3962 116.115 24.321C116.169 24.2478 116.197 24.1589 116.196 24.068C116.198 24.01 116.188 23.9522 116.168 23.8979C116.147 23.8437 116.116 23.7941 116.076 23.752C115.995 23.6677 115.898 23.6007 115.79 23.555C115.675 23.5065 115.557 23.4683 115.435 23.441C115.325 23.4154 115.215 23.3914 115.105 23.369C114.927 23.3265 114.752 23.2754 114.579 23.216C114.421 23.1627 114.273 23.0851 114.139 22.986C114.01 22.8895 113.905 22.765 113.832 22.622C113.75 22.4519 113.711 22.2646 113.717 22.076C113.712 21.8693 113.759 21.6647 113.853 21.4807C113.947 21.2968 114.086 21.1394 114.257 21.023C114.421 20.909 114.606 20.823 114.813 20.765C115.311 20.6262 115.842 20.6564 116.321 20.851C116.601 20.966 116.825 21.157 116.991 21.425L116.321 21.933Z" fill="white"/>
<path d="M91.706 35.3029H90.47L89.637 34.4029C89.35 34.7479 89.045 35.0129 88.723 35.1979C88.401 35.3829 88.013 35.4749 87.56 35.4749C87.177 35.4749 86.845 35.4199 86.564 35.3079C86.3041 35.2097 86.0677 35.0581 85.87 34.8629C85.6927 34.685 85.5557 34.4712 85.468 34.2359C85.3822 34.0045 85.3385 33.7597 85.339 33.5129C85.339 33.2769 85.381 33.0609 85.464 32.8669C85.546 32.6719 85.658 32.4949 85.799 32.3349C85.939 32.1749 86.103 32.0319 86.292 31.9049C86.4789 31.7779 86.6755 31.6659 86.88 31.5699C86.6719 31.3513 86.4845 31.1139 86.32 30.8609C86.1596 30.6029 86.0782 30.3036 86.086 29.9999C86.086 29.7439 86.136 29.5179 86.234 29.3199C86.334 29.1219 86.465 28.9559 86.631 28.8219C86.797 28.6879 86.989 28.5859 87.206 28.5159C87.423 28.4459 87.653 28.4109 87.895 28.4109C88.131 28.4109 88.356 28.4419 88.57 28.5059C88.784 28.5699 88.97 28.6659 89.13 28.7929C89.29 28.9209 89.416 29.0809 89.508 29.2729C89.601 29.4629 89.647 29.6869 89.647 29.9429C89.647 30.1529 89.605 30.3459 89.522 30.5209C89.4392 30.6965 89.3296 30.8581 89.197 30.9999C89.0621 31.1443 88.9111 31.2728 88.747 31.3829C88.5839 31.4931 88.4146 31.594 88.24 31.6849L89.58 33.0819L90.432 31.6939H91.475L90.164 33.7239L91.705 35.3039L91.706 35.3029ZM88.728 29.9429C88.728 29.7189 88.651 29.5419 88.498 29.4109C88.345 29.2809 88.148 29.2149 87.905 29.2149C87.662 29.2149 87.451 29.2829 87.273 29.4199C87.094 29.5579 87.005 29.7539 87.005 30.0099C87.005 30.1239 87.025 30.2329 87.067 30.3349C87.108 30.4369 87.163 30.5349 87.23 30.6309C87.297 30.7269 87.369 30.8169 87.445 30.8999C87.5201 30.9811 87.5967 31.0608 87.675 31.1389C87.7962 31.0716 87.9159 31.0015 88.034 30.9289C88.158 30.8519 88.272 30.7649 88.374 30.6689C88.476 30.5739 88.56 30.4669 88.627 30.3489C88.6955 30.2243 88.7299 30.084 88.727 29.9419L88.728 29.9429ZM87.455 32.1059C87.321 32.1819 87.185 32.2659 87.048 32.3549C86.911 32.4439 86.788 32.5429 86.679 32.6509C86.5714 32.7584 86.4825 32.8831 86.416 33.0199C86.349 33.1569 86.316 33.3119 86.316 33.4839C86.316 33.6499 86.351 33.8039 86.421 33.9489C86.491 34.0919 86.587 34.2189 86.708 34.3269C86.829 34.4349 86.965 34.5199 87.115 34.5799C87.4164 34.6943 87.7483 34.6992 88.053 34.5939C88.197 34.5439 88.331 34.4779 88.455 34.3979C88.58 34.3179 88.695 34.2279 88.8 34.1259C88.905 34.0229 89.002 33.9179 89.092 33.8099L87.455 32.1059ZM97.022 29.3869H94.84V28.5249H100.124V29.3869H97.941V35.3029H97.022V29.3869ZM100.308 28.5249H101.371L103.362 34.0389H103.382L105.449 28.5249H106.454L103.784 35.3029H102.922L100.308 28.5249ZM109.596 31.9049C109.491 31.775 109.363 31.666 109.218 31.5839C109.049 31.493 108.86 31.4481 108.668 31.4539C108.463 31.4539 108.286 31.4979 108.136 31.5839C108.067 31.6192 108.009 31.6734 107.969 31.7403C107.929 31.8072 107.909 31.8841 107.911 31.9619C107.911 32.0959 107.954 32.2049 108.041 32.2879C108.127 32.3709 108.229 32.4379 108.347 32.4879C108.465 32.5399 108.591 32.5779 108.725 32.6039C108.859 32.6289 108.974 32.6509 109.07 32.6709C109.255 32.7149 109.429 32.7689 109.591 32.8329C109.754 32.8969 109.895 32.9799 110.013 33.0829C110.131 33.1839 110.223 33.3089 110.29 33.4549C110.357 33.6019 110.39 33.7809 110.39 33.9919C110.397 34.2101 110.346 34.4263 110.244 34.6191C110.142 34.812 109.991 34.9749 109.807 35.0919C109.627 35.2103 109.428 35.295 109.218 35.3419C108.998 35.3919 108.776 35.4179 108.553 35.4179C108.215 35.4248 107.878 35.3664 107.562 35.2459C107.278 35.1309 107.024 34.9199 106.801 34.6139L107.451 34.0779C107.592 34.2179 107.749 34.3429 107.921 34.4509C108.093 34.5599 108.304 34.6139 108.553 34.6139C108.661 34.6139 108.771 34.6029 108.883 34.5799C108.995 34.5579 109.093 34.5229 109.18 34.4749C109.262 34.4301 109.334 34.368 109.39 34.2929C109.445 34.2196 109.473 34.1303 109.472 34.0389C109.474 33.9811 109.464 33.9234 109.444 33.8694C109.423 33.8153 109.392 33.7658 109.352 33.7239C109.271 33.6395 109.173 33.5725 109.065 33.5269C108.951 33.4781 108.832 33.4396 108.711 33.4119C108.601 33.3866 108.491 33.363 108.381 33.3409C108.203 33.2981 108.027 33.2467 107.854 33.1869C107.696 33.1336 107.548 33.056 107.414 32.9569C107.286 32.8607 107.181 32.7366 107.107 32.5939C107.025 32.4238 106.986 32.2365 106.992 32.0479C106.987 31.8411 107.034 31.6364 107.128 31.4525C107.223 31.2685 107.362 31.1112 107.533 30.9949C107.696 30.8799 107.881 30.7949 108.088 30.7369C108.586 30.5981 109.117 30.6283 109.596 30.8229C109.877 30.9379 110.1 31.1289 110.266 31.3969L109.596 31.9049Z" fill="white"/>
</svg>
