<svg width="11" height="10" viewBox="0 0 11 10" fill="none" xmlns="http://www.w3.org/2000/svg">
<g clip-path="url(#clip0_0_417)">
<path d="M5.42169 6.18338L1.50503 2.26672C1.3872 2.15281 1.22936 2.08974 1.06548 2.09109C0.901609 2.09243 0.74482 2.15809 0.628884 2.27391C0.512949 2.38974 0.447145 2.54647 0.445644 2.71034C0.444143 2.87421 0.507066 3.03212 0.620861 3.15005L4.92336 7.45255C4.98803 7.51747 5.06621 7.56733 5.15235 7.59858C5.23848 7.62984 5.33044 7.64172 5.42169 7.63338C5.51321 7.64197 5.6055 7.63022 5.69194 7.59895C5.77838 7.56769 5.85684 7.51769 5.92169 7.45255L10.2234 3.15005C10.3338 3.03157 10.3939 2.87487 10.391 2.71295C10.3881 2.55103 10.3226 2.39654 10.208 2.28203C10.0935 2.16752 9.93905 2.10193 9.77713 2.09907C9.61521 2.09621 9.45851 2.15632 9.34003 2.26672L5.42169 6.18338Z" fill="#A8ACB1"/>
</g>
<defs>
<clipPath id="clip0_0_417">
<rect width="10" height="10" fill="white" transform="translate(0.4375)"/>
</clipPath>
</defs>
</svg>
