<svg width="120" height="46" viewBox="0 0 120 46" fill="none" xmlns="http://www.w3.org/2000/svg">
<g clip-path="url(#clip0_0_420)">
<path d="M20.8 13.8192L23.3462 9.39996C23.7041 8.77951 23.8012 8.04239 23.6161 7.35043C23.4311 6.65846 22.979 6.06819 22.3592 5.70919C22.0524 5.53193 21.7136 5.41693 21.3622 5.37076C21.0109 5.32458 20.6539 5.34815 20.3116 5.4401C19.9694 5.53205 19.6486 5.69059 19.3677 5.90664C19.0869 6.12269 18.8513 6.39201 18.6746 6.69919L16.1285 11.1169C10.7015 9.4038 4.62692 11.6207 1.66385 16.7607C0.769049 18.3098 0.219532 20.034 0.0529109 21.8152C-0.113711 23.5964 0.106497 25.3925 0.698461 27.0807L5.40077 18.9223C5.92926 17.9991 6.63561 17.1899 7.47895 16.5416C8.32228 15.8933 9.28584 15.4187 10.3138 15.1453C11.3399 14.867 12.4111 14.7953 13.4651 14.9344C14.5191 15.0734 15.535 15.4205 16.4538 15.9553C20.3177 18.19 21.6462 23.1569 19.4154 27.0261C17.1846 30.8969 12.2262 32.2276 8.36308 29.993L11.06 25.3138C11.3667 25.4912 11.7055 25.6064 12.0568 25.6527C12.4081 25.6991 12.7651 25.6757 13.1073 25.5839C13.4496 25.492 13.7704 25.3336 14.0513 25.1177C14.3323 24.9017 14.5679 24.6325 14.7446 24.3253C15.102 23.7048 15.1987 22.9679 15.0136 22.2762C14.8284 21.5844 14.3765 20.9944 13.7569 20.6353C13.4502 20.458 13.1114 20.3429 12.7602 20.2966C12.4089 20.2504 12.0519 20.2738 11.7097 20.3656C11.3674 20.4574 11.0467 20.6158 10.7657 20.8317C10.4848 21.0476 10.2491 21.3168 10.0723 21.6238L1.46923 36.5492C1.11156 37.1696 1.01461 37.9065 1.19963 38.5983C1.38465 39.2901 1.83654 39.8802 2.45615 40.2392C2.76291 40.4167 3.10168 40.5319 3.45305 40.5782C3.80441 40.6246 4.16146 40.6011 4.50375 40.5092C4.84604 40.4173 5.16682 40.2588 5.44773 40.0427C5.72864 39.8266 5.96415 39.5572 6.14077 39.25L8.68769 34.8323C14.1138 36.5453 20.1892 34.3284 23.1523 29.1876C26.1154 24.0476 24.9946 17.6692 20.7992 13.8184M36.3285 22.8692C37.5338 22.8692 38.3015 22.3269 38.3015 21.0146C38.3015 19.6853 37.4985 19.1792 36.3285 19.1792H34.6685V22.8684L36.3285 22.8692ZM32.2238 17.0261H36.3977C38.8254 17.0261 40.8169 18.233 40.8169 21.0146C40.8169 23.7961 38.8085 25.0223 36.3977 25.0223H34.6692V28.923H32.2231L32.2238 17.0261ZM44.4085 17.0261H52.2677V19.1792H46.8531V21.9069H51.6223V24.0061H46.8531V26.7715H52.5131V28.923H44.4077L44.4085 17.0261ZM56.6277 17.0261H59.0731V26.7715H64.4531V28.923H56.6277V17.0261ZM76.9639 22.9738C76.9639 20.753 75.4969 19.0553 73.3315 19.0553C71.1646 19.0553 69.6985 20.753 69.6985 22.9738C69.6985 25.1969 71.1646 26.8938 73.3315 26.8938C75.4969 26.8938 76.9639 25.1961 76.9639 22.9738ZM67.1831 22.9738C67.1831 19.4584 69.9077 16.8684 73.3315 16.8684C76.7546 16.8684 79.4777 19.4584 79.4777 22.9738C79.4777 26.4907 76.7546 29.0815 73.3315 29.0815C69.9085 29.0815 67.1831 26.4907 67.1831 22.9738ZM85.5015 19.1792H82.1138V17.0253H91.3354V19.1792H87.9477V28.923H85.5015V19.1792ZM103.735 22.9738C103.735 20.753 102.268 19.0553 100.103 19.0553C97.9362 19.0553 96.4692 20.753 96.4692 22.9738C96.4692 25.1969 97.9362 26.8938 100.103 26.8938C102.268 26.8938 103.735 25.1961 103.735 22.9738ZM93.9538 22.9738C93.9538 19.4584 96.6792 16.8684 100.103 16.8684C103.526 16.8684 106.251 19.4584 106.251 22.9738C106.251 26.4907 103.526 29.0815 100.103 29.0815C96.6792 29.0815 93.9538 26.4907 93.9538 22.9738ZM113.72 23.3938C113.127 22.8346 112.305 21.7669 112.305 21.7669C112.305 21.7669 112.481 23.0792 112.481 23.9361V28.9238H110.192V16.9207H110.436L116.427 22.5553C117.004 23.0969 117.824 24.1807 117.824 24.1807C117.824 24.1807 117.668 22.8346 117.668 22.013V17.0261H119.955V29.0276H119.712L113.72 23.3938Z" fill="white"/>
</g>
<defs>
<clipPath id="clip0_0_420">
<rect width="120" height="46" fill="white"/>
</clipPath>
</defs>
</svg>
