<svg width="81" height="19" viewBox="0 0 81 19" fill="none" xmlns="http://www.w3.org/2000/svg">
<rect x="0.5" y="0.5625" width="79.8906" height="18.25" rx="4" fill="#DF1C2F"/>
<path d="M11.8359 13.5625V3.5625H12.4766V13.5625H11.8359ZM13.5352 6.86328C13.5039 6.54818 13.3698 6.30339 13.1328 6.12891C12.8958 5.95443 12.5742 5.86719 12.168 5.86719C11.8919 5.86719 11.6589 5.90625 11.4688 5.98437C11.2786 6.0599 11.1328 6.16536 11.0313 6.30078C10.9323 6.4362 10.8828 6.58984 10.8828 6.76172C10.8776 6.90495 10.9076 7.02995 10.9727 7.13672C11.0404 7.24349 11.1328 7.33594 11.25 7.41406C11.3672 7.48958 11.5026 7.55599 11.6562 7.61328C11.8099 7.66797 11.974 7.71484 12.1484 7.75391L12.8672 7.92578C13.2161 8.00391 13.5365 8.10807 13.8281 8.23828C14.1198 8.36849 14.3724 8.52865 14.5859 8.71875C14.7995 8.90885 14.9648 9.13281 15.082 9.39062C15.2018 9.64844 15.263 9.94401 15.2656 10.2773C15.263 10.7669 15.138 11.1914 14.8906 11.5508C14.6458 11.9076 14.2917 12.1849 13.8281 12.3828C13.3672 12.5781 12.8112 12.6758 12.1602 12.6758C11.5143 12.6758 10.9518 12.5768 10.4727 12.3789C9.99609 12.181 9.6237 11.888 9.35547 11.5C9.08984 11.1094 8.95052 10.6263 8.9375 10.0508H10.5742C10.5924 10.319 10.6693 10.543 10.8047 10.7227C10.9427 10.8997 11.1263 11.0339 11.3555 11.125C11.5872 11.2135 11.849 11.2578 12.1406 11.2578C12.4271 11.2578 12.6758 11.2161 12.8867 11.1328C13.1003 11.0495 13.2656 10.9336 13.3828 10.7852C13.5 10.6367 13.5586 10.4661 13.5586 10.2734C13.5586 10.0937 13.5052 9.94271 13.3984 9.82031C13.2943 9.69792 13.1406 9.59375 12.9375 9.50781C12.737 9.42187 12.4909 9.34375 12.1992 9.27344L11.3281 9.05469C10.6536 8.89062 10.1211 8.63411 9.73047 8.28516C9.33984 7.9362 9.14583 7.46615 9.14844 6.875C9.14583 6.39062 9.27474 5.96745 9.53516 5.60547C9.79818 5.24349 10.1589 4.96094 10.6172 4.75781C11.0755 4.55469 11.5964 4.45312 12.1797 4.45312C12.7734 4.45312 13.2917 4.55469 13.7344 4.75781C14.1797 4.96094 14.526 5.24349 14.7734 5.60547C15.0208 5.96745 15.1484 6.38672 15.1562 6.86328H13.5352ZM17.4354 11.1563V9.82422L20.7752 4.5625H21.9236V6.40625H21.2439L19.1385 9.73828V9.80078H23.8846V11.1563H17.4354ZM21.2752 12.5625V10.75L21.3064 10.1602V4.5625H22.8924V12.5625H21.2752ZM29.3482 12.7383C28.6764 12.7357 28.0982 12.5703 27.6139 12.2422C27.1321 11.9141 26.761 11.4388 26.5006 10.8164C26.2428 10.194 26.1152 9.44531 26.1178 8.57031C26.1178 7.69792 26.2467 6.95443 26.5045 6.33984C26.7649 5.72526 27.136 5.25781 27.6178 4.9375C28.1021 4.61458 28.679 4.45312 29.3482 4.45312C30.0175 4.45312 30.593 4.61458 31.0748 4.9375C31.5592 5.26042 31.9316 5.72917 32.192 6.34375C32.4524 6.95573 32.5813 7.69792 32.5787 8.57031C32.5787 9.44792 32.4485 10.1979 32.1881 10.8203C31.9303 11.4427 31.5605 11.918 31.0787 12.2461C30.5969 12.5742 30.0201 12.7383 29.3482 12.7383ZM29.3482 11.3359C29.8066 11.3359 30.1725 11.1055 30.4459 10.6445C30.7193 10.1836 30.8548 9.49219 30.8521 8.57031C30.8521 7.96354 30.7896 7.45833 30.6646 7.05469C30.5423 6.65104 30.3678 6.34766 30.1412 6.14453C29.9173 5.94141 29.6529 5.83984 29.3482 5.83984C28.8925 5.83984 28.5279 6.06771 28.2545 6.52344C27.9811 6.97917 27.843 7.66146 27.8404 8.57031C27.8404 9.1849 27.9016 9.69792 28.024 10.1094C28.149 10.5182 28.3248 10.8255 28.5514 11.0312C28.7779 11.2344 29.0436 11.3359 29.3482 11.3359ZM38.1215 12.7383C37.4496 12.7357 36.8715 12.5703 36.3871 12.2422C35.9053 11.9141 35.5342 11.4388 35.2738 10.8164C35.016 10.194 34.8884 9.44531 34.891 8.57031C34.891 7.69792 35.0199 6.95443 35.2777 6.33984C35.5382 5.72526 35.9092 5.25781 36.391 4.9375C36.8754 4.61458 37.4522 4.45312 38.1215 4.45312C38.7908 4.45312 39.3663 4.61458 39.848 4.9375C40.3324 5.26042 40.7048 5.72917 40.9652 6.34375C41.2257 6.95573 41.3546 7.69792 41.352 8.57031C41.352 9.44792 41.2217 10.1979 40.9613 10.8203C40.7035 11.4427 40.3337 11.918 39.852 12.2461C39.3702 12.5742 38.7934 12.7383 38.1215 12.7383ZM38.1215 11.3359C38.5798 11.3359 38.9457 11.1055 39.2191 10.6445C39.4926 10.1836 39.628 9.49219 39.6254 8.57031C39.6254 7.96354 39.5629 7.45833 39.4379 7.05469C39.3155 6.65104 39.141 6.34766 38.9145 6.14453C38.6905 5.94141 38.4262 5.83984 38.1215 5.83984C37.6658 5.83984 37.3012 6.06771 37.0277 6.52344C36.7543 6.97917 36.6163 7.66146 36.6137 8.57031C36.6137 9.1849 36.6749 9.69792 36.7973 10.1094C36.9223 10.5182 37.098 10.8255 37.3246 11.0312C37.5512 11.2344 37.8168 11.3359 38.1215 11.3359ZM54.9023 8.5625C54.9023 9.4349 54.737 10.1771 54.4063 10.7891C54.0781 11.401 53.6302 11.8685 53.0625 12.1914C52.4974 12.5117 51.862 12.6719 51.1563 12.6719C50.4453 12.6719 49.8073 12.5104 49.2422 12.1875C48.6771 11.8646 48.2305 11.3971 47.9023 10.7852C47.5742 10.1732 47.4102 9.43229 47.4102 8.5625C47.4102 7.6901 47.5742 6.94792 47.9023 6.33594C48.2305 5.72396 48.6771 5.25781 49.2422 4.9375C49.8073 4.61458 50.4453 4.45312 51.1563 4.45312C51.862 4.45312 52.4974 4.61458 53.0625 4.9375C53.6302 5.25781 54.0781 5.72396 54.4063 6.33594C54.737 6.94792 54.9023 7.6901 54.9023 8.5625ZM53.1875 8.5625C53.1875 7.9974 53.1029 7.52083 52.9336 7.13281C52.7669 6.74479 52.5313 6.45052 52.2266 6.25C51.9219 6.04948 51.5651 5.94922 51.1563 5.94922C50.7474 5.94922 50.3906 6.04948 50.0859 6.25C49.7813 6.45052 49.5443 6.74479 49.375 7.13281C49.2083 7.52083 49.125 7.9974 49.125 8.5625C49.125 9.1276 49.2083 9.60417 49.375 9.99219C49.5443 10.3802 49.7813 10.6745 50.0859 10.875C50.3906 11.0755 50.7474 11.1758 51.1563 11.1758C51.5651 11.1758 51.9219 11.0755 52.2266 10.875C52.5313 10.6745 52.7669 10.3802 52.9336 9.99219C53.1029 9.60417 53.1875 9.1276 53.1875 8.5625ZM57.3553 12.5625V4.5625H62.6521V5.95703H59.0467V7.86328H62.3006V9.25781H59.0467V12.5625H57.3553ZM64.9898 12.5625V4.5625H70.2867V5.95703H66.6813V7.86328H69.9352V9.25781H66.6813V12.5625H64.9898Z" fill="white"/>
</svg>
